<?xml version="1.0" encoding="UTF-8"?>
<!DOCTYPE svg PUBLIC "-//W3C//DTD SVG 1.1//EN" "http://www.w3.org/Graphics/SVG/1.1/DTD/svg11.dtd">
<svg version="1.1" xmlns="http://www.w3.org/2000/svg" xmlns:xlink="http://www.w3.org/1999/xlink" x="0" y="0" width="215" height="104" viewBox="0, 0, 215, 104">
  <g id="Background">
    <rect x="0" y="0" width="215" height="104" fill="#FFFFFF"/>
  </g>
  <g id="Name" transform="scale(1,-1) translate(0,-104)">
    <path d="M 67.7479,80.1166 C 67.7479,79.831 67.7122,79.5811 67.6408,79.3669 C 67.5694,79.1527 67.4722,78.9683 67.3493,78.8136 C 67.2263,78.6589 67.0835,78.5339 66.9209,78.4387 C 66.7582,78.3435 66.5896,78.2721 66.4151,78.2245 L 66.4151,78.2007 C 66.6293,78.161 66.8296,78.0857 67.016,77.9746 C 67.2025,77.8635 67.3651,77.7247 67.504,77.5581 C 67.6428,77.3915 67.7539,77.1952 67.8372,76.9691 C 67.9205,76.7429 67.9621,76.495 67.9621,76.2253 C 67.9621,75.9 67.9066,75.6025 67.7955,75.3328 C 67.6844,75.0631 67.5119,74.829 67.2778,74.6307 C 67.0438,74.4324 66.7483,74.2777 66.3913,74.1666 C 66.0343,74.0555 65.6099,74 65.118,74 L 63.4401,74 L 63.4401,82.211 L 65.0228,82.211 C 65.5067,82.211 65.9213,82.1614 66.2664,82.0623 C 66.6115,81.9631 66.8951,81.8223 67.1172,81.6398 C 67.3393,81.4573 67.5,81.2372 67.5992,80.9794 C 67.6983,80.7215 67.7479,80.4339 67.7479,80.1166 z
M 66.7007,80.0809 C 66.7007,80.4617 66.5658,80.7751 66.2961,81.021 C 66.0264,81.2669 65.6019,81.3899 65.0228,81.3899 L 64.4754,81.3899 L 64.4754,78.5577 L 65.0109,78.5577 C 65.5662,78.5577 65.9867,78.6926 66.2723,78.9623 C 66.5579,79.232 66.7007,79.6049 66.7007,80.0809 z
M 66.8554,76.2967 C 66.8554,76.741 66.7106,77.092 66.4211,77.3499 C 66.1315,77.6077 65.717,77.7366 65.1775,77.7366 L 64.4754,77.7366 L 64.4754,74.8568 L 65.118,74.8568 C 65.7289,74.8568 66.1712,74.9778 66.4449,75.2198 C 66.7186,75.4617 66.8554,75.8207 66.8554,76.2967 z
M 73.2338,74 L 72.3532,74 L 72.3532,74.6426 L 72.3294,74.6426 C 72.3056,74.595 72.254,74.5256 72.1747,74.4344 C 72.0954,74.3431 71.9942,74.2559 71.8713,74.1726 C 71.7483,74.0893 71.5995,74.0159 71.425,73.9524 C 71.2505,73.8889 71.0561,73.8572 70.8419,73.8572 C 70.588,73.8572 70.36,73.8949 70.1577,73.9702 C 69.9554,74.0456 69.7828,74.1666 69.64,74.3332 C 69.4972,74.4998 69.3881,74.716 69.3128,74.9818 C 69.2374,75.2475 69.1997,75.5748 69.1997,75.9635 L 69.1997,79.712 L 70.1636,79.712 L 70.1636,76.0349 C 70.1636,75.5589 70.241,75.2198 70.3957,75.0174 C 70.5504,74.8152 70.7903,74.714 71.1156,74.714 C 71.3933,74.714 71.6273,74.7834 71.8177,74.9223 C 72.0081,75.0611 72.1588,75.1979 72.2699,75.3328 L 72.2699,79.712 L 73.2338,79.712 L 73.2338,74 z
M 77.8272,74 L 77.8272,77.6771 C 77.8272,78.161 77.7459,78.5081 77.5833,78.7184 C 77.4206,78.9286 77.1727,79.0337 76.8395,79.0337 C 76.5539,79.0337 76.3159,78.9623 76.1255,78.8195 C 75.9351,78.6767 75.7844,78.5379 75.6733,78.403 L 75.6733,74 L 74.7094,74 L 74.7094,79.712 L 75.59,79.712 L 75.59,79.0694 L 75.6138,79.0694 C 75.6376,79.117 75.6892,79.1864 75.7685,79.2777 C 75.8478,79.3689 75.951,79.4562 76.0779,79.5395 C 76.2048,79.6228 76.3556,79.6961 76.5301,79.7596 C 76.7046,79.8231 76.903,79.8548 77.1251,79.8548 C 77.379,79.8548 77.609,79.8171 77.8153,79.7418 C 78.0216,79.6664 78.1961,79.5454 78.3389,79.3788 C 78.4817,79.2122 78.5928,78.996 78.6721,78.7303 C 78.7514,78.4645 78.7911,78.1372 78.7911,77.7485 L 78.7911,74 L 77.8272,74 z
M 79.9692,76.7727 C 79.9692,77.3518 80.0446,77.8358 80.1953,78.2245 C 80.346,78.6132 80.5404,78.9266 80.7784,79.1646 C 81.0164,79.4026 81.2861,79.5712 81.5876,79.6704 C 81.8891,79.7695 82.1905,79.8191 82.492,79.8191 C 82.6745,79.8191 82.8331,79.8052 82.968,79.7774 C 83.1029,79.7497 83.2139,79.716 83.3012,79.6763 L 83.3012,82.4133 L 84.2651,82.5204 L 84.2651,74 L 83.3845,74 L 83.3845,74.6069 L 83.3607,74.6069 C 83.3369,74.5593 83.2933,74.4939 83.2298,74.4106 C 83.1663,74.3273 83.0791,74.244 82.968,74.1607 C 82.8569,74.0774 82.7181,74.006 82.5515,73.9464 C 82.3849,73.8869 82.1905,73.8572 81.9684,73.8572 C 81.6987,73.8572 81.4428,73.9107 81.2009,74.0179 C 80.9589,74.125 80.7467,74.2955 80.5642,74.5296 C 80.3817,74.7636 80.237,75.0651 80.1299,75.434 C 80.0228,75.8029 79.9692,76.2491 79.9692,76.7727 z
M 82.2302,74.714 C 82.3809,74.714 82.5158,74.7338 82.6348,74.7735 C 82.7538,74.8132 82.8569,74.8628 82.9442,74.9223 C 83.0315,74.9818 83.1049,75.0432 83.1644,75.1067 C 83.2239,75.1702 83.2695,75.2257 83.3012,75.2733 L 83.3012,78.7957 C 83.2139,78.8512 83.1128,78.8988 82.9978,78.9385 C 82.8827,78.9782 82.7379,78.998 82.5634,78.998 C 82.3413,78.998 82.133,78.9603 81.9387,78.885 C 81.7443,78.8096 81.5757,78.6846 81.4329,78.5101 C 81.2901,78.3356 81.1771,78.1095 81.0938,77.8318 C 81.0105,77.5541 80.9688,77.213 80.9688,76.8084 C 80.9688,76.4117 81.0025,76.0805 81.07,75.8148 C 81.1374,75.549 81.2306,75.3348 81.3496,75.1722 C 81.4686,75.0095 81.6035,74.8925 81.7542,74.8211 C 81.9049,74.7497 82.0636,74.714 82.2302,74.714 z
M 89.4059,77.7842 C 89.4059,77.5383 89.398,77.3261 89.3821,77.1476 C 89.3662,76.9691 89.3504,76.8124 89.3345,76.6775 L 86.419,76.6775 C 86.4507,76.0032 86.5955,75.5073 86.8534,75.19 C 87.1112,74.8727 87.4821,74.714 87.966,74.714 C 88.1326,74.714 88.2833,74.7338 88.4182,74.7735 C 88.5531,74.8132 88.6701,74.8608 88.7693,74.9163 C 88.8684,74.9718 88.9517,75.0274 89.0192,75.0829 C 89.0866,75.1384 89.1362,75.1821 89.1679,75.2138 L 89.5249,74.5355 C 89.4852,74.4958 89.4257,74.4383 89.3464,74.363 C 89.2671,74.2876 89.16,74.2122 89.0251,74.1368 C 88.8902,74.0615 88.7236,73.996 88.5253,73.9405 C 88.327,73.885 88.0929,73.8572 87.8232,73.8572 C 87.4662,73.8572 87.1429,73.9167 86.8534,74.0357 C 86.5638,74.1547 86.3179,74.3392 86.1156,74.5891 C 85.9133,74.839 85.7566,75.1563 85.6455,75.5411 C 85.5344,75.9258 85.4789,76.3879 85.4789,76.9274 C 85.4789,77.4351 85.5364,77.8735 85.6515,78.2424 C 85.7665,78.6113 85.9232,78.9147 86.1215,79.1527 C 86.3198,79.3907 86.5499,79.5672 86.8117,79.6823 C 87.0735,79.7973 87.3551,79.8548 87.6566,79.8548 C 88.204,79.8548 88.6324,79.6823 88.9418,79.3372 C 89.2512,78.9921 89.4059,78.4744 89.4059,77.7842 z
M 87.5971,79.0694 C 87.256,79.0694 86.9823,78.9266 86.776,78.641 C 86.5697,78.3554 86.4507,77.9429 86.419,77.4034 L 88.5015,77.4034 C 88.5094,77.4431 88.5154,77.5006 88.5194,77.576 C 88.5233,77.6513 88.5253,77.7326 88.5253,77.8199 C 88.5253,78.2166 88.446,78.524 88.2873,78.7422 C 88.1286,78.9603 87.8986,79.0694 87.5971,79.0694 z
M 93.1544,78.5577 C 93.0909,78.6291 92.9759,78.7263 92.8093,78.8493 C 92.6427,78.9722 92.4245,79.0337 92.1548,79.0337 C 91.9009,79.0337 91.7066,78.9742 91.5717,78.8552 C 91.4368,78.7362 91.3694,78.5934 91.3694,78.4268 C 91.3694,78.2126 91.4309,78.0361 91.5539,77.8973 C 91.6768,77.7584 91.8652,77.6097 92.1191,77.451 L 92.4761,77.2368 C 92.8648,77.0067 93.1703,76.7588 93.3924,76.4931 C 93.6145,76.2273 93.7256,75.8842 93.7256,75.4637 C 93.7256,75.0115 93.5689,74.6307 93.2556,74.3213 C 92.9422,74.0119 92.492,73.8572 91.9049,73.8572 C 91.6748,73.8572 91.4725,73.881 91.298,73.9286 C 91.1235,73.9762 90.9707,74.0317 90.8399,74.0952 C 90.709,74.1587 90.5999,74.2281 90.5126,74.3034 C 90.4253,74.3788 90.3539,74.4482 90.2984,74.5117 L 90.7625,75.2733 C 90.8101,75.2257 90.8676,75.1702 90.9351,75.1067 C 91.0025,75.0432 91.0838,74.9818 91.179,74.9223 C 91.2742,74.8628 91.3813,74.8132 91.5003,74.7735 C 91.6193,74.7338 91.7581,74.714 91.9168,74.714 C 92.2024,74.714 92.4206,74.7775 92.5713,74.9044 C 92.722,75.0313 92.7974,75.186 92.7974,75.3685 C 92.7974,75.5034 92.7796,75.6204 92.7439,75.7196 C 92.7082,75.8187 92.6546,75.908 92.5832,75.9873 C 92.5118,76.0666 92.4245,76.142 92.3214,76.2134 C 92.2183,76.2848 92.0993,76.3641 91.9644,76.4514 L 91.6074,76.6775 C 91.2504,76.9076 90.9707,77.1495 90.7685,77.4034 C 90.5662,77.6573 90.465,77.9825 90.465,78.3792 C 90.465,78.5934 90.5067,78.7898 90.59,78.9683 C 90.6733,79.1467 90.7903,79.3014 90.941,79.4324 C 91.0917,79.5633 91.2683,79.6664 91.4706,79.7418 C 91.6729,79.8171 91.889,79.8548 92.1191,79.8548 C 92.3412,79.8548 92.5316,79.833 92.6903,79.7894 C 92.849,79.7457 92.9858,79.6902 93.1009,79.6228 C 93.2159,79.5553 93.3111,79.4879 93.3865,79.4205 C 93.4618,79.353 93.5233,79.2955 93.5709,79.2479 L 93.1544,78.5577 z
M 97.8549,74 L 97.8549,77.6771 C 97.8549,78.1452 97.7875,78.4823 97.6526,78.6886 C 97.5177,78.8949 97.2996,78.998 96.9981,78.998 C 96.8394,78.998 96.6986,78.9782 96.5757,78.9385 C 96.4527,78.8988 96.3436,78.8493 96.2484,78.7898 C 96.1532,78.7303 96.0699,78.6648 95.9985,78.5934 C 95.9271,78.522 95.8676,78.4585 95.82,78.403 L 95.82,74 L 94.8561,74 L 94.8561,79.712 L 95.7367,79.712 L 95.7367,79.0694 L 95.7605,79.0694 C 95.8002,79.1329 95.8597,79.2102 95.939,79.3014 C 96.0183,79.3927 96.1175,79.48 96.2365,79.5633 C 96.3555,79.6466 96.4943,79.716 96.653,79.7715 C 96.8117,79.827 96.9902,79.8548 97.1885,79.8548 C 97.839,79.8548 98.2992,79.6009 98.5689,79.0932 C 98.6244,79.1725 98.6998,79.2578 98.795,79.3491 C 98.8902,79.4403 99.0013,79.5236 99.1282,79.599 C 99.2551,79.6743 99.3979,79.7358 99.5566,79.7834 C 99.7153,79.831 99.8898,79.8548 100.0802,79.8548 C 101.2385,79.8548 101.8176,79.1805 101.8176,77.8318 L 101.8176,74 L 100.8537,74 L 100.8537,77.6771 C 100.8537,78.1452 100.7704,78.4823 100.6038,78.6886 C 100.4372,78.8949 100.1913,78.998 99.866,78.998 C 99.5963,78.998 99.3722,78.9325 99.1937,78.8017 C 99.0152,78.6707 98.8743,78.5458 98.7712,78.4268 C 98.7871,78.3395 98.799,78.2463 98.8069,78.1471 C 98.8148,78.048 98.8188,77.9429 98.8188,77.8318 L 98.8188,74 L 97.8549,74 z
M 104.2214,74 L 103.2575,74 L 103.2575,79.712 L 104.2214,79.712 L 104.2214,74 z
M 103.7454,81.0924 C 103.5471,81.0924 103.3884,81.1559 103.2694,81.2828 C 103.1504,81.4097 103.0909,81.5763 103.0909,81.7826 C 103.0909,81.9809 103.1504,82.1436 103.2694,82.2705 C 103.3884,82.3974 103.5471,82.4609 103.7454,82.4609 C 103.9358,82.4609 104.0905,82.3974 104.2095,82.2705 C 104.3285,82.1436 104.388,81.9809 104.388,81.7826 C 104.388,81.5763 104.3285,81.4097 104.2095,81.2828 C 104.0905,81.1559 103.9358,81.0924 103.7454,81.0924 z
M 108.8148,74 L 108.8148,77.6771 C 108.8148,78.161 108.7335,78.5081 108.5709,78.7184 C 108.4082,78.9286 108.1603,79.0337 107.8271,79.0337 C 107.5415,79.0337 107.3035,78.9623 107.1131,78.8195 C 106.9227,78.6767 106.772,78.5379 106.6609,78.403 L 106.6609,74 L 105.697,74 L 105.697,79.712 L 106.5776,79.712 L 106.5776,79.0694 L 106.6014,79.0694 C 106.6252,79.117 106.6768,79.1864 106.7561,79.2777 C 106.8354,79.3689 106.9386,79.4562 107.0655,79.5395 C 107.1924,79.6228 107.3432,79.6961 107.5177,79.7596 C 107.6922,79.8231 107.8906,79.8548 108.1127,79.8548 C 108.3666,79.8548 108.5966,79.8171 108.8029,79.7418 C 109.0092,79.6664 109.1837,79.5454 109.3265,79.3788 C 109.4693,79.2122 109.5804,78.996 109.6597,78.7303 C 109.739,78.4645 109.7787,78.1372 109.7787,77.7485 L 109.7787,74 L 108.8148,74 z
M 112.1825,74 L 111.2186,74 L 111.2186,79.712 L 112.1825,79.712 L 112.1825,74 z
M 111.7065,81.0924 C 111.5082,81.0924 111.3495,81.1559 111.2305,81.2828 C 111.1115,81.4097 111.052,81.5763 111.052,81.7826 C 111.052,81.9809 111.1115,82.1436 111.2305,82.2705 C 111.3495,82.3974 111.5082,82.4609 111.7065,82.4609 C 111.8969,82.4609 112.0516,82.3974 112.1706,82.2705 C 112.2896,82.1436 112.3491,81.9809 112.3491,81.7826 C 112.3491,81.5763 112.2896,81.4097 112.1706,81.2828 C 112.0516,81.1559 111.8969,81.0924 111.7065,81.0924 z
M 116.1214,78.5577 C 116.0579,78.6291 115.9429,78.7263 115.7763,78.8493 C 115.6097,78.9722 115.3915,79.0337 115.1218,79.0337 C 114.8679,79.0337 114.6736,78.9742 114.5387,78.8552 C 114.4038,78.7362 114.3364,78.5934 114.3364,78.4268 C 114.3364,78.2126 114.3979,78.0361 114.5209,77.8973 C 114.6438,77.7584 114.8322,77.6097 115.0861,77.451 L 115.4431,77.2368 C 115.8318,77.0067 116.1373,76.7588 116.3594,76.4931 C 116.5815,76.2273 116.6926,75.8842 116.6926,75.4637 C 116.6926,75.0115 116.5359,74.6307 116.2226,74.3213 C 115.9092,74.0119 115.459,73.8572 114.8719,73.8572 C 114.6418,73.8572 114.4395,73.881 114.265,73.9286 C 114.0905,73.9762 113.9377,74.0317 113.8069,74.0952 C 113.676,74.1587 113.5669,74.2281 113.4796,74.3034 C 113.3923,74.3788 113.3209,74.4482 113.2654,74.5117 L 113.7295,75.2733 C 113.7771,75.2257 113.8346,75.1702 113.9021,75.1067 C 113.9695,75.0432 114.0508,74.9818 114.146,74.9223 C 114.2412,74.8628 114.3483,74.8132 114.4673,74.7735 C 114.5863,74.7338 114.7251,74.714 114.8838,74.714 C 115.1694,74.714 115.3876,74.7775 115.5383,74.9044 C 115.689,75.0313 115.7644,75.186 115.7644,75.3685 C 115.7644,75.5034 115.7466,75.6204 115.7109,75.7196 C 115.6752,75.8187 115.6216,75.908 115.5502,75.9873 C 115.4788,76.0666 115.3915,76.142 115.2884,76.2134 C 115.1853,76.2848 115.0663,76.3641 114.9314,76.4514 L 114.5744,76.6775 C 114.2174,76.9076 113.9377,77.1495 113.7355,77.4034 C 113.5332,77.6573 113.432,77.9825 113.432,78.3792 C 113.432,78.5934 113.4737,78.7898 113.557,78.9683 C 113.6403,79.1467 113.7573,79.3014 113.908,79.4324 C 114.0587,79.5633 114.2353,79.6664 114.4376,79.7418 C 114.6399,79.8171 114.856,79.8548 115.0861,79.8548 C 115.3082,79.8548 115.4986,79.833 115.6573,79.7894 C 115.816,79.7457 115.9528,79.6902 116.0679,79.6228 C 116.1829,79.5553 116.2781,79.4879 116.3535,79.4205 C 116.4288,79.353 116.4903,79.2955 116.5379,79.2479 L 116.1214,78.5577 z
M 120.2626,78.9266 L 119.0131,78.9266 L 119.0131,75.7612 C 119.0131,75.3566 119.0647,75.0809 119.1678,74.9342 C 119.2709,74.7874 119.4455,74.714 119.6914,74.714 C 119.8342,74.714 119.9572,74.7338 120.0603,74.7735 C 120.1634,74.8132 120.2388,74.8489 120.2864,74.8806 L 120.4173,74.1071 C 120.3776,74.0754 120.2824,74.0258 120.1317,73.9583 C 119.981,73.8909 119.7787,73.8572 119.5248,73.8572 C 119.0329,73.8572 118.664,73.994 118.4181,74.2678 C 118.1722,74.5414 118.0492,74.9956 118.0492,75.6303 L 118.0492,78.9266 L 117.359,78.9266 L 117.359,79.5692 L 118.0492,79.712 L 118.1563,81.3066 L 119.0131,81.3066 L 119.0131,79.712 L 120.3816,79.712 L 120.2626,78.9266 z
M 124.9393,77.7842 C 124.9393,77.5383 124.9314,77.3261 124.9155,77.1476 C 124.8996,76.9691 124.8838,76.8124 124.8679,76.6775 L 121.9524,76.6775 C 121.9841,76.0032 122.1289,75.5073 122.3868,75.19 C 122.6446,74.8727 123.0155,74.714 123.4994,74.714 C 123.666,74.714 123.8167,74.7338 123.9516,74.7735 C 124.0865,74.8132 124.2035,74.8608 124.3027,74.9163 C 124.4018,74.9718 124.4851,75.0274 124.5526,75.0829 C 124.62,75.1384 124.6696,75.1821 124.7013,75.2138 L 125.0583,74.5355 C 125.0186,74.4958 124.9591,74.4383 124.8798,74.363 C 124.8005,74.2876 124.6934,74.2122 124.5585,74.1368 C 124.4236,74.0615 124.257,73.996 124.0587,73.9405 C 123.8604,73.885 123.6263,73.8572 123.3566,73.8572 C 122.9996,73.8572 122.6763,73.9167 122.3868,74.0357 C 122.0972,74.1547 121.8513,74.3392 121.649,74.5891 C 121.4467,74.839 121.29,75.1563 121.1789,75.5411 C 121.0678,75.9258 121.0123,76.3879 121.0123,76.9274 C 121.0123,77.4351 121.0698,77.8735 121.1849,78.2424 C 121.2999,78.6113 121.4566,78.9147 121.6549,79.1527 C 121.8532,79.3907 122.0833,79.5672 122.3451,79.6823 C 122.6069,79.7973 122.8885,79.8548 123.19,79.8548 C 123.7374,79.8548 124.1658,79.6823 124.4752,79.3372 C 124.7846,78.9921 124.9393,78.4744 124.9393,77.7842 z
M 123.1305,79.0694 C 122.7894,79.0694 122.5157,78.9266 122.3094,78.641 C 122.1031,78.3554 121.9841,77.9429 121.9524,77.4034 L 124.0349,77.4034 C 124.0428,77.4431 124.0488,77.5006 124.0528,77.576 C 124.0567,77.6513 124.0587,77.7326 124.0587,77.8199 C 124.0587,78.2166 123.9794,78.524 123.8207,78.7422 C 123.662,78.9603 123.432,79.0694 123.1305,79.0694 z
M 128.7354,78.8671 C 128.7116,78.883 128.66,78.9028 128.5807,78.9266 C 128.5014,78.9504 128.3943,78.9623 128.2594,78.9623 C 127.9579,78.9623 127.7219,78.881 127.5514,78.7184 C 127.3808,78.5557 127.2598,78.3792 127.1884,78.1888 L 127.1884,74 L 126.2245,74 L 126.2245,79.712 L 127.1051,79.712 L 127.1051,78.9385 L 127.1289,78.9385 C 127.1686,79.0496 127.2201,79.1587 127.2836,79.2658 C 127.3471,79.3729 127.4264,79.4681 127.5216,79.5514 C 127.6168,79.6347 127.7298,79.7001 127.8607,79.7477 C 127.9917,79.7953 128.1483,79.8191 128.3308,79.8191 C 128.4657,79.8191 128.5748,79.8072 128.6581,79.7834 C 128.7414,79.7596 128.8068,79.7398 128.8544,79.7239 L 128.7354,78.8671 z
M 130.6513,74 L 129.6874,74 L 129.6874,79.712 L 130.6513,79.712 L 130.6513,74 z
M 130.1753,81.0924 C 129.977,81.0924 129.8183,81.1559 129.6993,81.2828 C 129.5803,81.4097 129.5208,81.5763 129.5208,81.7826 C 129.5208,81.9809 129.5803,82.1436 129.6993,82.2705 C 129.8183,82.3974 129.977,82.4609 130.1753,82.4609 C 130.3657,82.4609 130.5204,82.3974 130.6394,82.2705 C 130.7584,82.1436 130.8179,81.9809 130.8179,81.7826 C 130.8179,81.5763 130.7584,81.4097 130.6394,81.2828 C 130.5204,81.1559 130.3657,81.0924 130.1753,81.0924 z
M 136.1253,74 L 135.2447,74 L 135.2447,74.6426 L 135.2209,74.6426 C 135.1971,74.595 135.1455,74.5256 135.0662,74.4344 C 134.9869,74.3431 134.8857,74.2559 134.7628,74.1726 C 134.6398,74.0893 134.491,74.0159 134.3165,73.9524 C 134.142,73.8889 133.9476,73.8572 133.7334,73.8572 C 133.4795,73.8572 133.2515,73.8949 133.0492,73.9702 C 132.8469,74.0456 132.6743,74.1666 132.5315,74.3332 C 132.3887,74.4998 132.2796,74.716 132.2043,74.9818 C 132.1289,75.2475 132.0912,75.5748 132.0912,75.9635 L 132.0912,79.712 L 133.0551,79.712 L 133.0551,76.0349 C 133.0551,75.5589 133.1325,75.2198 133.2872,75.0174 C 133.4419,74.8152 133.6818,74.714 134.0071,74.714 C 134.2848,74.714 134.5188,74.7834 134.7092,74.9223 C 134.8996,75.0611 135.0503,75.1979 135.1614,75.3328 L 135.1614,79.712 L 136.1253,79.712 L 136.1253,74 z
M 140.5997,74 L 140.5997,77.6771 C 140.5997,78.1452 140.5323,78.4823 140.3974,78.6886 C 140.2625,78.8949 140.0444,78.998 139.7429,78.998 C 139.5842,78.998 139.4434,78.9782 139.3205,78.9385 C 139.1975,78.8988 139.0884,78.8493 138.9932,78.7898 C 138.898,78.7303 138.8147,78.6648 138.7433,78.5934 C 138.6719,78.522 138.6124,78.4585 138.5648,78.403 L 138.5648,74 L 137.6009,74 L 137.6009,79.712 L 138.4815,79.712 L 138.4815,79.0694 L 138.5053,79.0694 C 138.545,79.1329 138.6045,79.2102 138.6838,79.3014 C 138.7631,79.3927 138.8623,79.48 138.9813,79.5633 C 139.1003,79.6466 139.2391,79.716 139.3978,79.7715 C 139.5565,79.827 139.735,79.8548 139.9333,79.8548 C 140.5838,79.8548 141.044,79.6009 141.3137,79.0932 C 141.3692,79.1725 141.4446,79.2578 141.5398,79.3491 C 141.635,79.4403 141.7461,79.5236 141.873,79.599 C 141.9999,79.6743 142.1427,79.7358 142.3014,79.7834 C 142.4601,79.831 142.6346,79.8548 142.825,79.8548 C 143.9833,79.8548 144.5624,79.1805 144.5624,77.8318 L 144.5624,74 L 143.5985,74 L 143.5985,77.6771 C 143.5985,78.1452 143.5152,78.4823 143.3486,78.6886 C 143.182,78.8949 142.9361,78.998 142.6108,78.998 C 142.3411,78.998 142.117,78.9325 141.9385,78.8017 C 141.76,78.6707 141.6191,78.5458 141.516,78.4268 C 141.5319,78.3395 141.5438,78.2463 141.5517,78.1471 C 141.5596,78.048 141.5636,77.9429 141.5636,77.8318 L 141.5636,74 L 140.5997,74 z
M 65.6416,66.9266 L 64.4754,66.9266 L 64.4754,62 L 63.5115,62 L 63.5115,66.9266 L 62.8213,66.9266 L 62.8213,67.5692 L 63.5115,67.7001 L 63.5115,68.8425 C 63.5115,69.1519 63.5551,69.4177 63.6424,69.6398 C 63.7297,69.8619 63.8447,70.0444 63.9875,70.1872 C 64.1303,70.33 64.2969,70.4331 64.4873,70.4966 C 64.6777,70.5601 64.88,70.5918 65.0942,70.5918 C 65.3005,70.5918 65.475,70.564 65.6178,70.5085 C 65.7606,70.453 65.8558,70.4093 65.9034,70.3776 L 65.7011,69.5803 C 65.6535,69.612 65.5861,69.6458 65.4988,69.6815 C 65.4115,69.7172 65.3044,69.735 65.1775,69.735 C 64.9474,69.735 64.7729,69.6636 64.6539,69.5208 C 64.5349,69.378 64.4754,69.1162 64.4754,68.7354 L 64.4754,67.712 L 65.7606,67.712 L 65.6416,66.9266 z
M 70.592,62 L 69.7114,62 L 69.7114,62.6426 L 69.6876,62.6426 C 69.6638,62.595 69.6122,62.5256 69.5329,62.4344 C 69.4536,62.3431 69.3524,62.2559 69.2295,62.1726 C 69.1065,62.0893 68.9577,62.0159 68.7832,61.9524 C 68.6087,61.8889 68.4143,61.8572 68.2001,61.8572 C 67.9462,61.8572 67.7182,61.8949 67.5159,61.9702 C 67.3136,62.0456 67.141,62.1666 66.9982,62.3332 C 66.8554,62.4998 66.7463,62.716 66.671,62.9818 C 66.5956,63.2475 66.5579,63.5748 66.5579,63.9635 L 66.5579,67.712 L 67.5218,67.712 L 67.5218,64.0349 C 67.5218,63.5589 67.5992,63.2198 67.7539,63.0174 C 67.9086,62.8152 68.1485,62.714 68.4738,62.714 C 68.7515,62.714 68.9855,62.7834 69.1759,62.9223 C 69.3663,63.0611 69.517,63.1979 69.6281,63.3328 L 69.6281,67.712 L 70.592,67.712 L 70.592,62 z
M 68.2239,69.3542 C 68.2239,69.1717 68.1684,69.025 68.0573,68.9139 C 67.9462,68.8028 67.8114,68.7473 67.6527,68.7473 C 67.494,68.7473 67.3592,68.8028 67.2481,68.9139 C 67.137,69.025 67.0815,69.1717 67.0815,69.3542 C 67.0815,69.5367 67.137,69.6834 67.2481,69.7945 C 67.3592,69.9056 67.494,69.9611 67.6527,69.9611 C 67.8114,69.9611 67.9462,69.9056 68.0573,69.7945 C 68.1684,69.6834 68.2239,69.5367 68.2239,69.3542 z
M 70.0565,69.3542 C 70.0565,69.1717 70.001,69.025 69.8899,68.9139 C 69.7788,68.8028 69.644,68.7473 69.4853,68.7473 C 69.3266,68.7473 69.1918,68.8028 69.0807,68.9139 C 68.9696,69.025 68.9141,69.1717 68.9141,69.3542 C 68.9141,69.5367 68.9696,69.6834 69.0807,69.7945 C 69.1918,69.9056 69.3266,69.9611 69.4853,69.9611 C 69.644,69.9611 69.7788,69.9056 69.8899,69.7945 C 70.001,69.6834 70.0565,69.5367 70.0565,69.3542 z
M 74.5785,66.8671 C 74.5547,66.883 74.5031,66.9028 74.4238,66.9266 C 74.3445,66.9504 74.2374,66.9623 74.1025,66.9623 C 73.801,66.9623 73.565,66.881 73.3945,66.7184 C 73.2239,66.5557 73.1029,66.3792 73.0315,66.1888 L 73.0315,62 L 72.0676,62 L 72.0676,67.712 L 72.9482,67.712 L 72.9482,66.9385 L 72.972,66.9385 C 73.0117,67.0496 73.0632,67.1587 73.1267,67.2658 C 73.1902,67.3729 73.2695,67.4681 73.3647,67.5514 C 73.4599,67.6347 73.5729,67.7001 73.7038,67.7477 C 73.8348,67.7953 73.9914,67.8191 74.1739,67.8191 C 74.3088,67.8191 74.4179,67.8072 74.5012,67.7834 C 74.5845,67.7596 74.6499,67.7398 74.6975,67.7239 L 74.5785,66.8671 z
M 86.0025,70.211 L 84.0033,62 L 83.0751,62 L 81.8256,67.1646 C 81.7383,67.5216 81.663,67.8548 81.5995,68.1642 C 81.536,68.4736 81.5003,68.7195 81.4924,68.902 L 81.4686,68.902 C 81.4686,68.7195 81.4369,68.4776 81.3734,68.1761 C 81.3099,67.8746 81.2346,67.5454 81.1473,67.1884 L 79.874,62 L 78.9458,62 L 76.9942,70.211 L 78.1009,70.211 L 79.1243,65.213 C 79.2036,64.8322 79.2731,64.4732 79.3326,64.1361 C 79.3921,63.7989 79.4258,63.5391 79.4337,63.3566 L 79.4575,63.3566 C 79.4654,63.5391 79.5071,63.8048 79.5825,64.1539 C 79.6578,64.503 79.7391,64.8639 79.8264,65.2368 L 81.0402,70.211 L 82.0279,70.211 L 83.2179,65.213 C 83.3052,64.8322 83.3845,64.4732 83.4559,64.1361 C 83.5273,63.7989 83.567,63.5391 83.5749,63.3566 L 83.5987,63.3566 C 83.6066,63.5391 83.6423,63.8068 83.7058,64.1599 C 83.7693,64.5129 83.8407,64.8798 83.92,65.2606 L 84.9553,70.211 L 86.0025,70.211 z
M 86.3238,64.856 C 86.3238,65.3796 86.3853,65.8318 86.5083,66.2126 C 86.6312,66.5934 86.7978,66.9048 87.0081,67.1467 C 87.2183,67.3887 87.4603,67.5672 87.734,67.6823 C 88.0077,67.7973 88.2992,67.8548 88.6086,67.8548 C 88.9259,67.8548 89.2195,67.7973 89.4892,67.6823 C 89.7589,67.5672 89.993,67.3887 90.1913,67.1467 C 90.3896,66.9048 90.5463,66.5934 90.6614,66.2126 C 90.7764,65.8318 90.8339,65.3796 90.8339,64.856 C 90.8339,64.3245 90.7744,63.8683 90.6554,63.4875 C 90.5364,63.1067 90.3718,62.7953 90.1616,62.5534 C 89.9513,62.3114 89.7074,62.1349 89.4297,62.0238 C 89.152,61.9127 88.8585,61.8572 88.5491,61.8572 C 88.2318,61.8572 87.9382,61.9127 87.6685,62.0238 C 87.3988,62.1349 87.1647,62.3114 86.9664,62.5534 C 86.7681,62.7953 86.6114,63.1047 86.4964,63.4816 C 86.3813,63.8584 86.3238,64.3165 86.3238,64.856 z
M 89.8343,64.856 C 89.8343,65.6176 89.7232,66.171 89.5011,66.516 C 89.279,66.8612 88.9696,67.0337 88.5729,67.0337 C 88.1762,67.0337 87.8688,66.8612 87.6507,66.516 C 87.4325,66.171 87.3234,65.6176 87.3234,64.856 C 87.3234,64.0944 87.4345,63.547 87.6566,63.2138 C 87.8787,62.8806 88.1881,62.714 88.5848,62.714 C 88.9815,62.714 89.2889,62.8806 89.5071,63.2138 C 89.7252,63.547 89.8343,64.0944 89.8343,64.856 z
M 95.1655,62 L 95.1655,65.6771 C 95.1655,66.161 95.0842,66.5081 94.9216,66.7184 C 94.7589,66.9286 94.511,67.0337 94.1778,67.0337 C 93.8922,67.0337 93.6542,66.9623 93.4638,66.8195 C 93.2734,66.6767 93.1227,66.5379 93.0116,66.403 L 93.0116,62 L 92.0477,62 L 92.0477,70.4133 L 93.0116,70.5204 L 93.0116,67.1289 L 93.0354,67.1289 C 93.0671,67.1765 93.1167,67.24 93.1842,67.3193 C 93.2516,67.3986 93.3448,67.478 93.4638,67.5573 C 93.5828,67.6366 93.7276,67.7061 93.8982,67.7656 C 94.0687,67.8251 94.269,67.8548 94.4991,67.8548 C 94.9989,67.8548 95.3956,67.6922 95.6891,67.3669 C 95.9826,67.0416 96.1294,66.5022 96.1294,65.7485 L 96.1294,62 L 95.1655,62 z
M 100.6871,62 L 100.6871,65.6771 C 100.6871,66.161 100.6058,66.5081 100.4432,66.7184 C 100.2805,66.9286 100.0326,67.0337 99.6994,67.0337 C 99.4138,67.0337 99.1758,66.9623 98.9854,66.8195 C 98.795,66.6767 98.6443,66.5379 98.5332,66.403 L 98.5332,62 L 97.5693,62 L 97.5693,67.712 L 98.4499,67.712 L 98.4499,67.0694 L 98.4737,67.0694 C 98.4975,67.117 98.5491,67.1864 98.6284,67.2777 C 98.7077,67.3689 98.8109,67.4562 98.9378,67.5395 C 99.0647,67.6228 99.2155,67.6961 99.39,67.7596 C 99.5645,67.8231 99.7629,67.8548 99.985,67.8548 C 100.2389,67.8548 100.4689,67.8171 100.6752,67.7418 C 100.8815,67.6664 101.056,67.5454 101.1988,67.3788 C 101.3416,67.2122 101.4527,66.996 101.532,66.7303 C 101.6113,66.4645 101.651,66.1372 101.651,65.7485 L 101.651,62 L 100.6871,62 z
M 106.7561,65.7842 C 106.7561,65.5383 106.7482,65.3261 106.7323,65.1476 C 106.7164,64.9691 106.7006,64.8124 106.6847,64.6775 L 103.7692,64.6775 C 103.8009,64.0032 103.9457,63.5073 104.2036,63.19 C 104.4614,62.8727 104.8323,62.714 105.3162,62.714 C 105.4828,62.714 105.6335,62.7338 105.7684,62.7735 C 105.9033,62.8132 106.0203,62.8608 106.1195,62.9163 C 106.2186,62.9718 106.3019,63.0274 106.3694,63.0829 C 106.4368,63.1384 106.4864,63.1821 106.5181,63.2138 L 106.8751,62.5355 C 106.8354,62.4958 106.7759,62.4383 106.6966,62.363 C 106.6173,62.2876 106.5102,62.2122 106.3753,62.1368 C 106.2404,62.0615 106.0738,61.996 105.8755,61.9405 C 105.6772,61.885 105.4431,61.8572 105.1734,61.8572 C 104.8164,61.8572 104.4931,61.9167 104.2036,62.0357 C 103.914,62.1547 103.6681,62.3392 103.4658,62.5891 C 103.2635,62.839 103.1068,63.1563 102.9957,63.5411 C 102.8846,63.9258 102.8291,64.3879 102.8291,64.9274 C 102.8291,65.4351 102.8866,65.8735 103.0017,66.2424 C 103.1167,66.6113 103.2734,66.9147 103.4717,67.1527 C 103.67,67.3907 103.9001,67.5672 104.1619,67.6823 C 104.4237,67.7973 104.7053,67.8548 105.0068,67.8548 C 105.5542,67.8548 105.9826,67.6823 106.292,67.3372 C 106.6014,66.9921 106.7561,66.4744 106.7561,65.7842 z
M 104.9473,67.0694 C 104.6062,67.0694 104.3325,66.9266 104.1262,66.641 C 103.9199,66.3554 103.8009,65.9429 103.7692,65.4034 L 105.8517,65.4034 C 105.8596,65.4431 105.8656,65.5006 105.8696,65.576 C 105.8735,65.6513 105.8755,65.7326 105.8755,65.8199 C 105.8755,66.2166 105.7962,66.524 105.6375,66.7422 C 105.4788,66.9603 105.2488,67.0694 104.9473,67.0694 z
M 111.1591,62 L 111.1591,65.6771 C 111.1591,66.161 111.0778,66.5081 110.9152,66.7184 C 110.7525,66.9286 110.5046,67.0337 110.1714,67.0337 C 109.8858,67.0337 109.6478,66.9623 109.4574,66.8195 C 109.267,66.6767 109.1163,66.5379 109.0052,66.403 L 109.0052,62 L 108.0413,62 L 108.0413,67.712 L 108.9219,67.712 L 108.9219,67.0694 L 108.9457,67.0694 C 108.9695,67.117 109.0211,67.1864 109.1004,67.2777 C 109.1797,67.3689 109.2829,67.4562 109.4098,67.5395 C 109.5367,67.6228 109.6875,67.6961 109.862,67.7596 C 110.0365,67.8231 110.2349,67.8548 110.457,67.8548 C 110.7109,67.8548 110.9409,67.8171 111.1472,67.7418 C 111.3535,67.6664 111.528,67.5454 111.6708,67.3788 C 111.8136,67.2122 111.9247,66.996 112.004,66.7303 C 112.0833,66.4645 112.123,66.1372 112.123,65.7485 L 112.123,62 L 111.1591,62 z
M 113.4082,62.6783 C 113.4082,62.8925 113.4697,63.0532 113.5927,63.1603 C 113.7156,63.2674 113.8604,63.3209 114.027,63.3209 C 114.2571,63.3209 114.4455,63.2257 114.5923,63.0353 C 114.739,62.8449 114.8124,62.5514 114.8124,62.1547 C 114.8124,61.885 114.7708,61.6489 114.6875,61.4466 C 114.6042,61.2443 114.4951,61.0698 114.3602,60.923 C 114.2253,60.7763 114.0766,60.6553 113.914,60.5601 C 113.7513,60.4649 113.5907,60.3895 113.432,60.334 L 113.2297,60.7505 C 113.4756,60.8774 113.6779,61.0301 113.8366,61.2086 C 113.9953,61.3871 114.0825,61.6509 114.0984,62 L 114.0627,62 C 113.8802,62 113.7255,62.0575 113.5986,62.1726 C 113.4717,62.2876 113.4082,62.4562 113.4082,62.6783 z
M 121.6549,68.9496 C 121.6232,68.9813 121.5696,69.027 121.4943,69.0865 C 121.4189,69.146 121.3237,69.2035 121.2087,69.259 C 121.0936,69.3145 120.9588,69.3621 120.8041,69.4018 C 120.6494,69.4415 120.4768,69.4613 120.2864,69.4613 C 119.9294,69.4613 119.6597,69.3661 119.4772,69.1757 C 119.2947,68.9853 119.2035,68.7632 119.2035,68.5093 C 119.2035,68.3506 119.2253,68.2039 119.269,68.069 C 119.3126,67.9341 119.38,67.8013 119.4713,67.6704 C 119.5625,67.5395 119.6755,67.4085 119.8104,67.2777 C 119.9453,67.1467 120.1079,67.0059 120.2983,66.8552 L 120.9647,66.3078 C 121.1551,66.1491 121.3356,65.9865 121.5062,65.8199 C 121.6767,65.6533 121.8235,65.4768 121.9465,65.2904 C 122.0694,65.1039 122.1666,64.9016 122.238,64.6835 C 122.3094,64.4653 122.3451,64.2213 122.3451,63.9516 C 122.3451,63.3249 122.1507,62.8191 121.762,62.4344 C 121.3733,62.0496 120.806,61.8572 120.0603,61.8572 C 119.7668,61.8572 119.507,61.885 119.2809,61.9405 C 119.0548,61.996 118.8584,62.0635 118.6918,62.1428 C 118.5252,62.2221 118.3864,62.3034 118.2753,62.3868 C 118.1642,62.4701 118.0809,62.5395 118.0254,62.595 L 118.4419,63.4994 C 118.4895,63.4518 118.5609,63.3883 118.6561,63.309 C 118.7513,63.2297 118.8663,63.1503 119.0012,63.071 C 119.1361,62.9917 119.2888,62.9242 119.4594,62.8687 C 119.6299,62.8132 119.8223,62.7854 120.0365,62.7854 C 120.4411,62.7854 120.7525,62.8866 120.9707,63.0889 C 121.1888,63.2912 121.2979,63.5311 121.2979,63.8088 C 121.2979,63.9833 121.2761,64.142 121.2325,64.2848 C 121.1888,64.4276 121.1254,64.5645 121.0421,64.6954 C 120.9588,64.8263 120.8536,64.9552 120.7267,65.0821 C 120.5998,65.209 120.449,65.3439 120.2745,65.4867 L 119.6081,66.046 C 119.378,66.2364 119.1757,66.4169 119.0012,66.5875 C 118.8267,66.758 118.6779,66.9365 118.555,67.123 C 118.432,67.3094 118.3388,67.5117 118.2753,67.7299 C 118.2118,67.948 118.1801,68.1999 118.1801,68.4855 C 118.1801,68.7473 118.2297,68.9932 118.3289,69.2233 C 118.428,69.4534 118.5688,69.6517 118.7513,69.8183 C 118.9338,69.9849 119.1539,70.1158 119.4118,70.211 C 119.6696,70.3062 119.9611,70.3538 120.2864,70.3538 C 120.5561,70.3538 120.7941,70.328 121.0004,70.2765 C 121.2067,70.2249 121.3832,70.1654 121.53,70.098 C 121.6767,70.0305 121.7937,69.9611 121.881,69.8897 C 121.9683,69.8183 122.0357,69.7667 122.0833,69.735 L 121.6549,68.9496 z
M 125.8437,66.9266 L 124.5942,66.9266 L 124.5942,63.7612 C 124.5942,63.3566 124.6458,63.0809 124.7489,62.9342 C 124.852,62.7874 125.0266,62.714 125.2725,62.714 C 125.4153,62.714 125.5383,62.7338 125.6414,62.7735 C 125.7445,62.8132 125.8199,62.8489 125.8675,62.8806 L 125.9984,62.1071 C 125.9587,62.0754 125.8635,62.0258 125.7128,61.9583 C 125.5621,61.8909 125.3598,61.8572 125.1059,61.8572 C 124.614,61.8572 124.2451,61.994 123.9992,62.2678 C 123.7533,62.5414 123.6303,62.9956 123.6303,63.6303 L 123.6303,66.9266 L 122.9401,66.9266 L 122.9401,67.5692 L 123.6303,67.712 L 123.7374,69.3066 L 124.5942,69.3066 L 124.5942,67.712 L 125.9627,67.712 L 125.8437,66.9266 z
M 126.6053,63.4518 C 126.6053,63.785 126.6688,64.0627 126.7957,64.2848 C 126.9226,64.5069 127.0932,64.6874 127.3074,64.8263 C 127.5216,64.9651 127.7735,65.0643 128.0631,65.1238 C 128.3526,65.1833 128.66,65.213 128.9853,65.213 L 129.2828,65.213 L 129.2828,65.7604 C 129.2828,66.2443 129.1975,66.5775 129.027,66.76 C 128.8564,66.9425 128.6164,67.0337 128.307,67.0337 C 128.0214,67.0337 127.7834,66.9722 127.593,66.8493 C 127.4026,66.7263 127.2519,66.6172 127.1408,66.522 L 126.7362,67.1646 C 126.7997,67.2281 126.881,67.2995 126.9802,67.3788 C 127.0793,67.4581 127.2003,67.5335 127.3431,67.6049 C 127.4859,67.6763 127.6485,67.7358 127.831,67.7834 C 128.0135,67.831 128.2197,67.8548 128.4498,67.8548 C 129.0369,67.8548 129.4811,67.6922 129.7826,67.3669 C 130.0841,67.0416 130.2348,66.518 130.2348,65.7961 L 130.2348,63.19 C 130.2348,62.9441 130.2427,62.7041 130.2586,62.4701 C 130.2745,62.236 130.2903,62.0793 130.3062,62 L 129.3899,62 L 129.3542,62.6307 L 129.3304,62.6307 C 129.2987,62.5593 129.2511,62.478 129.1876,62.3868 C 129.1241,62.2955 129.0448,62.2122 128.9496,62.1368 C 128.8544,62.0615 128.7394,61.996 128.6045,61.9405 C 128.4696,61.885 128.311,61.8572 128.1285,61.8572 C 127.9143,61.8572 127.714,61.8969 127.5276,61.9762 C 127.3411,62.0555 127.1785,62.1666 127.0397,62.3094 C 126.9008,62.4522 126.7937,62.6208 126.7184,62.8152 C 126.643,63.0095 126.6053,63.2217 126.6053,63.4518 z
M 128.3308,62.6783 C 128.4657,62.6783 128.5847,62.6981 128.6878,62.7378 C 128.7909,62.7775 128.8802,62.8251 128.9556,62.8806 C 129.0309,62.9361 129.0944,62.9976 129.146,63.0651 C 129.1975,63.1325 129.2431,63.19 129.2828,63.2376 L 129.2828,64.499 L 128.9734,64.4871 C 128.5133,64.4712 128.1642,64.3919 127.9262,64.2491 C 127.6882,64.1063 127.5692,63.8762 127.5692,63.5589 C 127.5692,63.2654 127.6366,63.0452 127.7715,62.8985 C 127.9064,62.7517 128.0928,62.6783 128.3308,62.6783 z
M 131.4248,64.7727 C 131.4248,65.3518 131.5002,65.8358 131.6509,66.2245 C 131.8016,66.6132 131.996,66.9266 132.234,67.1646 C 132.472,67.4026 132.7417,67.5712 133.0432,67.6704 C 133.3447,67.7695 133.6461,67.8191 133.9476,67.8191 C 134.1301,67.8191 134.2887,67.8052 134.4236,67.7774 C 134.5585,67.7497 134.6695,67.716 134.7568,67.6763 L 134.7568,70.4133 L 135.7207,70.5204 L 135.7207,62 L 134.8401,62 L 134.8401,62.6069 L 134.8163,62.6069 C 134.7925,62.5593 134.7489,62.4939 134.6854,62.4106 C 134.6219,62.3273 134.5347,62.244 134.4236,62.1607 C 134.3125,62.0774 134.1737,62.006 134.0071,61.9464 C 133.8405,61.8869 133.6461,61.8572 133.424,61.8572 C 133.1543,61.8572 132.8984,61.9107 132.6565,62.0179 C 132.4145,62.125 132.2023,62.2955 132.0198,62.5296 C 131.8373,62.7636 131.6926,63.0651 131.5855,63.434 C 131.4784,63.8029 131.4248,64.2491 131.4248,64.7727 z
M 133.6858,62.714 C 133.8365,62.714 133.9714,62.7338 134.0904,62.7735 C 134.2094,62.8132 134.3125,62.8628 134.3998,62.9223 C 134.4871,62.9818 134.5605,63.0432 134.62,63.1067 C 134.6795,63.1702 134.7251,63.2257 134.7568,63.2733 L 134.7568,66.7957 C 134.6695,66.8512 134.5684,66.8988 134.4534,66.9385 C 134.3383,66.9782 134.1935,66.998 134.019,66.998 C 133.7969,66.998 133.5886,66.9603 133.3943,66.885 C 133.1999,66.8096 133.0313,66.6846 132.8885,66.5101 C 132.7457,66.3356 132.6327,66.1095 132.5494,65.8318 C 132.4661,65.5541 132.4244,65.213 132.4244,64.8084 C 132.4244,64.4117 132.4581,64.0805 132.5256,63.8148 C 132.593,63.549 132.6862,63.3348 132.8052,63.1722 C 132.9242,63.0095 133.0591,62.8925 133.2098,62.8211 C 133.3605,62.7497 133.5192,62.714 133.6858,62.714 z
M 139.6358,66.9266 L 138.3863,66.9266 L 138.3863,63.7612 C 138.3863,63.3566 138.4379,63.0809 138.541,62.9342 C 138.6441,62.7874 138.8187,62.714 139.0646,62.714 C 139.2074,62.714 139.3304,62.7338 139.4335,62.7735 C 139.5366,62.8132 139.612,62.8489 139.6596,62.8806 L 139.7905,62.1071 C 139.7508,62.0754 139.6556,62.0258 139.5049,61.9583 C 139.3542,61.8909 139.1519,61.8572 138.898,61.8572 C 138.4061,61.8572 138.0372,61.994 137.7913,62.2678 C 137.5454,62.5414 137.4224,62.9956 137.4224,63.6303 L 137.4224,66.9266 L 136.7322,66.9266 L 136.7322,67.5692 L 137.4224,67.712 L 137.5295,69.3066 L 138.3863,69.3066 L 138.3863,67.712 L 139.7548,67.712 L 139.6358,66.9266 z
M 144.3125,65.7842 C 144.3125,65.5383 144.3046,65.3261 144.2887,65.1476 C 144.2728,64.9691 144.257,64.8124 144.2411,64.6775 L 141.3256,64.6775 C 141.3573,64.0032 141.5021,63.5073 141.76,63.19 C 142.0178,62.8727 142.3887,62.714 142.8726,62.714 C 143.0392,62.714 143.1899,62.7338 143.3248,62.7735 C 143.4597,62.8132 143.5767,62.8608 143.6759,62.9163 C 143.775,62.9718 143.8583,63.0274 143.9258,63.0829 C 143.9932,63.1384 144.0428,63.1821 144.0745,63.2138 L 144.4315,62.5355 C 144.3918,62.4958 144.3323,62.4383 144.253,62.363 C 144.1737,62.2876 144.0666,62.2122 143.9317,62.1368 C 143.7968,62.0615 143.6302,61.996 143.4319,61.9405 C 143.2336,61.885 142.9995,61.8572 142.7298,61.8572 C 142.3728,61.8572 142.0495,61.9167 141.76,62.0357 C 141.4704,62.1547 141.2245,62.3392 141.0222,62.5891 C 140.8199,62.839 140.6632,63.1563 140.5521,63.5411 C 140.441,63.9258 140.3855,64.3879 140.3855,64.9274 C 140.3855,65.4351 140.443,65.8735 140.5581,66.2424 C 140.6731,66.6113 140.8298,66.9147 141.0281,67.1527 C 141.2264,67.3907 141.4565,67.5672 141.7183,67.6823 C 141.9801,67.7973 142.2617,67.8548 142.5632,67.8548 C 143.1106,67.8548 143.539,67.6823 143.8484,67.3372 C 144.1578,66.9921 144.3125,66.4744 144.3125,65.7842 z
M 142.5037,67.0694 C 142.1626,67.0694 141.8889,66.9266 141.6826,66.641 C 141.4763,66.3554 141.3573,65.9429 141.3256,65.4034 L 143.4081,65.4034 C 143.416,65.4431 143.422,65.5006 143.426,65.576 C 143.4299,65.6513 143.4319,65.7326 143.4319,65.8199 C 143.4319,66.2166 143.3526,66.524 143.1939,66.7422 C 143.0352,66.9603 142.8052,67.0694 142.5037,67.0694 z
M 148.7155,62 L 148.7155,65.6771 C 148.7155,66.161 148.6342,66.5081 148.4716,66.7184 C 148.3089,66.9286 148.061,67.0337 147.7278,67.0337 C 147.4422,67.0337 147.2042,66.9623 147.0138,66.8195 C 146.8234,66.6767 146.6727,66.5379 146.5616,66.403 L 146.5616,62 L 145.5977,62 L 145.5977,67.712 L 146.4783,67.712 L 146.4783,67.0694 L 146.5021,67.0694 C 146.5259,67.117 146.5775,67.1864 146.6568,67.2777 C 146.7361,67.3689 146.8393,67.4562 146.9662,67.5395 C 147.0931,67.6228 147.2439,67.6961 147.4184,67.7596 C 147.5929,67.8231 147.7913,67.8548 148.0134,67.8548 C 148.2673,67.8548 148.4973,67.8171 148.7036,67.7418 C 148.9099,67.6664 149.0844,67.5454 149.2272,67.3788 C 149.37,67.2122 149.4811,66.996 149.5604,66.7303 C 149.6397,66.4645 149.6794,66.1372 149.6794,65.7485 L 149.6794,62 L 148.7155,62 z
M 153.5588,66.9266 L 152.3093,66.9266 L 152.3093,63.7612 C 152.3093,63.3566 152.3609,63.0809 152.464,62.9342 C 152.5671,62.7874 152.7417,62.714 152.9876,62.714 C 153.1304,62.714 153.2534,62.7338 153.3565,62.7735 C 153.4596,62.8132 153.535,62.8489 153.5826,62.8806 L 153.7135,62.1071 C 153.6738,62.0754 153.5786,62.0258 153.4279,61.9583 C 153.2772,61.8909 153.0749,61.8572 152.821,61.8572 C 152.3291,61.8572 151.9602,61.994 151.7143,62.2678 C 151.4684,62.5414 151.3454,62.9956 151.3454,63.6303 L 151.3454,66.9266 L 150.6552,66.9266 L 150.6552,67.5692 L 151.3454,67.712 L 151.4525,69.3066 L 152.3093,69.3066 L 152.3093,67.712 L 153.6778,67.712 L 153.5588,66.9266 z
M 161.2343,67.712 L 159.4969,62 L 158.6401,62 L 158.057,63.9992 C 157.9697,64.2848 157.8964,64.5506 157.8369,64.7965 C 157.7774,65.0424 157.7397,65.2765 157.7238,65.4986 L 157.7,65.4986 C 157.6841,65.2765 157.6405,65.0385 157.5691,64.7846 C 157.4977,64.5307 157.4144,64.265 157.3192,63.9873 L 156.6647,62 L 155.8436,62 L 154.0467,67.712 L 155.082,67.712 L 155.9388,64.4752 C 156.0181,64.1737 156.0876,63.8941 156.1471,63.6363 C 156.2066,63.3784 156.2403,63.1345 156.2482,62.9044 L 156.272,62.9044 C 156.2958,63.1345 156.3454,63.3745 156.4208,63.6244 C 156.4961,63.8743 156.5814,64.146 156.6766,64.4395 L 157.2954,66.3078 L 156.867,67.712 L 157.8666,67.712 L 158.7353,64.5585 C 158.8226,64.2332 158.9019,63.9278 158.9733,63.6422 C 159.0447,63.3566 159.0844,63.1107 159.0923,62.9044 L 159.1161,62.9044 C 159.132,63.1107 159.1716,63.3586 159.2351,63.6482 C 159.2986,63.9377 159.3739,64.2412 159.4612,64.5585 L 160.3061,67.712 L 161.2343,67.712 z
M 163.0907,62 L 162.1268,62 L 162.1268,67.712 L 163.0907,67.712 L 163.0907,62 z
M 162.6147,69.0924 C 162.4164,69.0924 162.2577,69.1559 162.1387,69.2828 C 162.0197,69.4097 161.9602,69.5763 161.9602,69.7826 C 161.9602,69.9809 162.0197,70.1436 162.1387,70.2705 C 162.2577,70.3974 162.4164,70.4609 162.6147,70.4609 C 162.8051,70.4609 162.9598,70.3974 163.0788,70.2705 C 163.1978,70.1436 163.2573,69.9809 163.2573,69.7826 C 163.2573,69.5763 163.1978,69.4097 163.0788,69.2828 C 162.9598,69.1559 162.8051,69.0924 162.6147,69.0924 z
M 167.7436,66.6053 C 167.7198,66.6291 167.6821,66.6648 167.6306,66.7124 C 167.579,66.76 167.5135,66.8076 167.4342,66.8552 C 167.3549,66.9028 167.2597,66.9445 167.1486,66.9802 C 167.0375,67.0159 166.9106,67.0337 166.7678,67.0337 C 166.5615,67.0337 166.3692,66.996 166.1907,66.9207 C 166.0122,66.8453 165.8575,66.7243 165.7266,66.5577 C 165.5957,66.3911 165.4925,66.1749 165.4172,65.9092 C 165.3418,65.6434 165.3041,65.3201 165.3041,64.9393 C 165.3041,64.5188 165.3378,64.1658 165.4053,63.8802 C 165.4727,63.5946 165.5659,63.3665 165.6849,63.196 C 165.8039,63.0254 165.9487,62.9024 166.1193,62.8271 C 166.2898,62.7517 166.4782,62.714 166.6845,62.714 C 166.978,62.714 167.2022,62.7656 167.3569,62.8687 C 167.5116,62.9718 167.6206,63.0551 167.6841,63.1186 L 168.0768,62.4522 C 168.0371,62.4046 167.9796,62.3471 167.9043,62.2797 C 167.8289,62.2122 167.7317,62.1468 167.6127,62.0833 C 167.4937,62.0198 167.3489,61.9663 167.1784,61.9226 C 167.0078,61.879 166.8114,61.8572 166.5893,61.8572 C 166.272,61.8572 165.9745,61.9088 165.6968,62.0119 C 165.4191,62.115 165.1772,62.2856 164.9709,62.5236 C 164.7646,62.7616 164.602,63.071 164.483,63.4518 C 164.364,63.8326 164.3045,64.3046 164.3045,64.8679 C 164.3045,65.4153 164.3759,65.8794 164.5187,66.2602 C 164.6615,66.641 164.8479,66.9484 165.078,67.1825 C 165.3081,67.4165 165.5639,67.5871 165.8456,67.6942 C 166.1272,67.8013 166.4108,67.8548 166.6964,67.8548 C 166.9106,67.8548 167.099,67.835 167.2617,67.7953 C 167.4243,67.7556 167.5631,67.7061 167.6782,67.6466 C 167.7932,67.5871 167.8884,67.5236 167.9638,67.4562 C 168.0391,67.3887 168.1006,67.3312 168.1482,67.2836 L 167.7436,66.6053 z
M 171.3136,65.094 L 173.2771,62 L 172.1228,62 L 170.5163,64.6656 L 170.1236,64.6656 L 170.1236,62 L 169.1597,62 L 169.1597,70.4133 L 170.1236,70.5204 L 170.1236,65.4867 L 170.5282,65.4867 L 172.0633,67.712 L 173.2057,67.712 L 171.3136,65.094 z
M 175.0859,63.3328 C 175.0859,63.0948 175.1196,62.9282 175.1871,62.833 C 175.2545,62.7378 175.3715,62.6902 175.5381,62.6902 C 175.6254,62.6902 175.6988,62.6981 175.7583,62.714 C 175.8178,62.7299 175.8634,62.7457 175.8951,62.7616 L 175.9784,62.0476 C 175.9308,62.0238 175.8435,61.9921 175.7166,61.9524 C 175.5897,61.9127 175.4191,61.8929 175.2049,61.8929 C 174.8796,61.8929 174.6178,61.9921 174.4195,62.1904 C 174.2212,62.3887 174.122,62.7418 174.122,63.2495 L 174.122,70.4133 L 175.0859,70.5204 L 175.0859,63.3328 z
M 180.8455,62 L 179.9649,62 L 179.9649,62.6426 L 179.9411,62.6426 C 179.9173,62.595 179.8657,62.5256 179.7864,62.4344 C 179.7071,62.3431 179.6059,62.2559 179.483,62.1726 C 179.36,62.0893 179.2112,62.0159 179.0367,61.9524 C 178.8622,61.8889 178.6678,61.8572 178.4536,61.8572 C 178.1997,61.8572 177.9717,61.8949 177.7694,61.9702 C 177.5671,62.0456 177.3945,62.1666 177.2517,62.3332 C 177.1089,62.4998 176.9998,62.716 176.9245,62.9818 C 176.8491,63.2475 176.8114,63.5748 176.8114,63.9635 L 176.8114,67.712 L 177.7753,67.712 L 177.7753,64.0349 C 177.7753,63.5589 177.8527,63.2198 178.0074,63.0174 C 178.1621,62.8152 178.402,62.714 178.7273,62.714 C 179.005,62.714 179.239,62.7834 179.4294,62.9223 C 179.6198,63.0611 179.7705,63.1979 179.8816,63.3328 L 179.8816,67.712 L 180.8455,67.712 L 180.8455,62 z
M 185.4389,62 L 185.4389,65.6771 C 185.4389,66.161 185.3576,66.5081 185.195,66.7184 C 185.0323,66.9286 184.7844,67.0337 184.4512,67.0337 C 184.1656,67.0337 183.9276,66.9623 183.7372,66.8195 C 183.5468,66.6767 183.3961,66.5379 183.285,66.403 L 183.285,62 L 182.3211,62 L 182.3211,67.712 L 183.2017,67.712 L 183.2017,67.0694 L 183.2255,67.0694 C 183.2493,67.117 183.3009,67.1864 183.3802,67.2777 C 183.4595,67.3689 183.5627,67.4562 183.6896,67.5395 C 183.8165,67.6228 183.9673,67.6961 184.1418,67.7596 C 184.3163,67.8231 184.5147,67.8548 184.7368,67.8548 C 184.9907,67.8548 185.2207,67.8171 185.427,67.7418 C 185.6333,67.6664 185.8078,67.5454 185.9506,67.3788 C 186.0934,67.2122 186.2045,66.996 186.2838,66.7303 C 186.3631,66.4645 186.4028,66.1372 186.4028,65.7485 L 186.4028,62 L 185.4389,62 z
M 191.9363,66.9623 L 191.2223,66.9623 C 191.4048,66.6608 191.496,66.3197 191.496,65.9389 C 191.496,65.6374 191.4464,65.3657 191.3473,65.1238 C 191.2481,64.8818 191.1093,64.6775 190.9308,64.5109 C 190.7523,64.3443 190.542,64.2174 190.3001,64.1301 C 190.0581,64.0428 189.7983,63.9992 189.5206,63.9992 C 189.4651,63.9992 189.4135,63.9992 189.3659,63.9992 C 189.3183,63.9992 189.2667,64.0032 189.2112,64.0111 C 189.116,63.9714 189.0168,63.908 188.9137,63.8207 C 188.8106,63.7334 188.759,63.6184 188.759,63.4756 C 188.759,63.3566 188.8046,63.2594 188.8959,63.1841 C 188.9871,63.1087 189.1358,63.071 189.3421,63.071 L 190.068,63.071 C 190.3377,63.071 190.5876,63.0432 190.8177,62.9877 C 191.0478,62.9322 191.2481,62.8429 191.4187,62.72 C 191.5892,62.597 191.7221,62.4403 191.8173,62.2499 C 191.9125,62.0595 191.9601,61.8294 191.9601,61.5597 C 191.9601,61.2503 191.8947,60.9687 191.7638,60.7148 C 191.6329,60.4609 191.4484,60.2428 191.2104,60.0603 C 190.9724,59.8778 190.6828,59.735 190.3417,59.6319 C 190.0006,59.5288 189.6198,59.4772 189.1993,59.4772 C 188.5884,59.4772 188.1243,59.6101 187.807,59.8758 C 187.4897,60.1416 187.331,60.5244 187.331,61.0242 C 187.331,61.2384 187.3687,61.4228 187.4441,61.5775 C 187.5194,61.7322 187.6087,61.8671 187.7118,61.9821 C 187.8149,62.0972 187.9201,62.1884 188.0272,62.2559 C 188.1342,62.3233 188.2195,62.3768 188.283,62.4165 L 188.283,62.4403 C 188.0371,62.6228 187.9141,62.8885 187.9141,63.2376 C 187.9141,63.3883 187.9439,63.5192 188.0034,63.6303 C 188.0629,63.7414 188.1303,63.8326 188.2057,63.904 C 188.281,63.9754 188.3564,64.0329 188.4318,64.0766 C 188.5071,64.1202 188.5646,64.1499 188.6043,64.1658 L 188.6043,64.1896 C 188.3108,64.3245 188.0748,64.5367 187.8963,64.8263 C 187.7178,65.1158 187.6285,65.4867 187.6285,65.9389 C 187.6285,66.2562 187.6801,66.5359 187.7832,66.7778 C 187.8863,67.0198 188.0252,67.2201 188.1997,67.3788 C 188.3742,67.5375 188.5785,67.6565 188.8126,67.7358 C 189.0466,67.8151 189.2985,67.8548 189.5682,67.8548 C 189.8379,67.8548 190.0918,67.8072 190.3298,67.712 L 192.0672,67.712 L 191.9363,66.9623 z
M 189.2826,62.1785 C 189.116,62.1785 188.9692,62.1904 188.8423,62.2142 C 188.7709,62.1745 188.7015,62.1269 188.6341,62.0714 C 188.5666,62.0159 188.5051,61.9484 188.4496,61.8691 C 188.3941,61.7898 188.3485,61.6966 188.3128,61.5894 C 188.2771,61.4823 188.2592,61.3574 188.2592,61.2146 C 188.2592,60.6037 188.5964,60.2983 189.2707,60.2983 C 189.8498,60.2983 190.2782,60.4113 190.5559,60.6374 C 190.8336,60.8635 190.9724,61.1234 190.9724,61.4169 C 190.9724,61.6946 190.8851,61.8909 190.7106,62.006 C 190.5361,62.121 190.302,62.1785 190.0085,62.1785 L 189.2826,62.1785 z
M 190.5559,65.9389 C 190.5559,66.3514 190.4587,66.645 190.2644,66.8195 C 190.07,66.994 189.8419,67.0813 189.5801,67.0813 C 189.3024,67.0813 189.0644,66.994 188.8661,66.8195 C 188.6678,66.645 188.5686,66.3514 188.5686,65.9389 C 188.5686,65.5264 188.6678,65.2328 188.8661,65.0583 C 189.0644,64.8838 189.2945,64.7965 189.5563,64.7965 C 189.834,64.7965 190.07,64.8838 190.2644,65.0583 C 190.4587,65.2328 190.5559,65.5264 190.5559,65.9389 z
M 67.2362,50 L 66.3556,50 L 66.3556,50.6426 L 66.3318,50.6426 C 66.308,50.595 66.2564,50.5256 66.1771,50.4344 C 66.0978,50.3431 65.9966,50.2559 65.8737,50.1726 C 65.7507,50.0893 65.6019,50.0159 65.4274,49.9524 C 65.2529,49.8889 65.0585,49.8572 64.8443,49.8572 C 64.5904,49.8572 64.3624,49.8949 64.1601,49.9702 C 63.9578,50.0456 63.7852,50.1666 63.6424,50.3332 C 63.4996,50.4998 63.3905,50.716 63.3152,50.9818 C 63.2398,51.2475 63.2021,51.5748 63.2021,51.9635 L 63.2021,55.712 L 64.166,55.712 L 64.166,52.0349 C 64.166,51.5589 64.2434,51.2198 64.3981,51.0174 C 64.5528,50.8152 64.7927,50.714 65.118,50.714 C 65.3957,50.714 65.6297,50.7834 65.8201,50.9223 C 66.0105,51.0611 66.1612,51.1979 66.2723,51.3328 L 66.2723,55.712 L 67.2362,55.712 L 67.2362,50 z
M 71.8296,50 L 71.8296,53.6771 C 71.8296,54.161 71.7483,54.5081 71.5857,54.7184 C 71.423,54.9286 71.1751,55.0337 70.8419,55.0337 C 70.5563,55.0337 70.3183,54.9623 70.1279,54.8195 C 69.9375,54.6767 69.7868,54.5379 69.6757,54.403 L 69.6757,50 L 68.7118,50 L 68.7118,55.712 L 69.5924,55.712 L 69.5924,55.0694 L 69.6162,55.0694 C 69.64,55.117 69.6916,55.1864 69.7709,55.2777 C 69.8502,55.3689 69.9534,55.4562 70.0803,55.5395 C 70.2072,55.6228 70.358,55.6961 70.5325,55.7596 C 70.707,55.8231 70.9054,55.8548 71.1275,55.8548 C 71.3814,55.8548 71.6114,55.8171 71.8177,55.7418 C 72.024,55.6664 72.1985,55.5454 72.3413,55.3788 C 72.4841,55.2122 72.5952,54.996 72.6745,54.7303 C 72.7538,54.4645 72.7935,54.1372 72.7935,53.7485 L 72.7935,50 L 71.8296,50 z
M 73.9716,52.7727 C 73.9716,53.3518 74.047,53.8358 74.1977,54.2245 C 74.3484,54.6132 74.5428,54.9266 74.7808,55.1646 C 75.0188,55.4026 75.2885,55.5712 75.59,55.6704 C 75.8915,55.7695 76.1929,55.8191 76.4944,55.8191 C 76.6769,55.8191 76.8355,55.8052 76.9704,55.7774 C 77.1053,55.7497 77.2163,55.716 77.3036,55.6763 L 77.3036,58.4133 L 78.2675,58.5204 L 78.2675,50 L 77.3869,50 L 77.3869,50.6069 L 77.3631,50.6069 C 77.3393,50.5593 77.2957,50.4939 77.2322,50.4106 C 77.1687,50.3273 77.0815,50.244 76.9704,50.1607 C 76.8593,50.0774 76.7205,50.006 76.5539,49.9464 C 76.3873,49.8869 76.1929,49.8572 75.9708,49.8572 C 75.7011,49.8572 75.4452,49.9107 75.2033,50.0179 C 74.9613,50.125 74.7491,50.2955 74.5666,50.5296 C 74.3841,50.7636 74.2394,51.0651 74.1323,51.434 C 74.0252,51.8029 73.9716,52.2491 73.9716,52.7727 z
M 76.2326,50.714 C 76.3833,50.714 76.5182,50.7338 76.6372,50.7735 C 76.7562,50.8132 76.8593,50.8628 76.9466,50.9223 C 77.0339,50.9818 77.1073,51.0432 77.1668,51.1067 C 77.2263,51.1702 77.2719,51.2257 77.3036,51.2733 L 77.3036,54.7957 C 77.2163,54.8512 77.1152,54.8988 77.0002,54.9385 C 76.8851,54.9782 76.7403,54.998 76.5658,54.998 C 76.3437,54.998 76.1354,54.9603 75.9411,54.885 C 75.7467,54.8096 75.5781,54.6846 75.4353,54.5101 C 75.2925,54.3356 75.1795,54.1095 75.0962,53.8318 C 75.0129,53.5541 74.9712,53.213 74.9712,52.8084 C 74.9712,52.4117 75.0049,52.0805 75.0724,51.8148 C 75.1398,51.549 75.233,51.3348 75.352,51.1722 C 75.471,51.0095 75.6059,50.8925 75.7566,50.8211 C 75.9073,50.7497 76.066,50.714 76.2326,50.714 z
M 86.776,56.1166 C 86.776,55.831 86.7403,55.5811 86.6689,55.3669 C 86.5975,55.1527 86.5003,54.9683 86.3774,54.8136 C 86.2544,54.6589 86.1116,54.5339 85.949,54.4387 C 85.7863,54.3435 85.6177,54.2721 85.4432,54.2245 L 85.4432,54.2007 C 85.6574,54.161 85.8577,54.0857 86.0441,53.9746 C 86.2306,53.8635 86.3932,53.7247 86.5321,53.5581 C 86.6709,53.3915 86.782,53.1952 86.8653,52.9691 C 86.9486,52.7429 86.9902,52.495 86.9902,52.2253 C 86.9902,51.9 86.9347,51.6025 86.8236,51.3328 C 86.7125,51.0631 86.54,50.829 86.3059,50.6307 C 86.0719,50.4324 85.7764,50.2777 85.4194,50.1666 C 85.0624,50.0555 84.638,50 84.1461,50 L 82.4682,50 L 82.4682,58.211 L 84.0509,58.211 C 84.5348,58.211 84.9494,58.1614 85.2945,58.0623 C 85.6396,57.9631 85.9232,57.8223 86.1453,57.6398 C 86.3674,57.4573 86.5281,57.2372 86.6273,56.9794 C 86.7264,56.7215 86.776,56.4339 86.776,56.1166 z
M 85.7288,56.0809 C 85.7288,56.4617 85.5939,56.7751 85.3242,57.021 C 85.0545,57.2669 84.63,57.3899 84.0509,57.3899 L 83.5035,57.3899 L 83.5035,54.5577 L 84.039,54.5577 C 84.5943,54.5577 85.0148,54.6926 85.3004,54.9623 C 85.586,55.232 85.7288,55.6049 85.7288,56.0809 z
M 85.8835,52.2967 C 85.8835,52.741 85.7387,53.092 85.4492,53.3499 C 85.1596,53.6077 84.7451,53.7366 84.2056,53.7366 L 83.5035,53.7366 L 83.5035,50.8568 L 84.1461,50.8568 C 84.757,50.8568 85.1993,50.9778 85.473,51.2198 C 85.7467,51.4617 85.8835,51.8207 85.8835,52.2967 z
M 87.9303,51.4518 C 87.9303,51.785 87.9938,52.0627 88.1207,52.2848 C 88.2476,52.5069 88.4182,52.6874 88.6324,52.8263 C 88.8466,52.9651 89.0985,53.0643 89.3881,53.1238 C 89.6776,53.1833 89.985,53.213 90.3103,53.213 L 90.6078,53.213 L 90.6078,53.7604 C 90.6078,54.2443 90.5225,54.5775 90.352,54.76 C 90.1814,54.9425 89.9414,55.0337 89.632,55.0337 C 89.3464,55.0337 89.1084,54.9722 88.918,54.8493 C 88.7276,54.7263 88.5769,54.6172 88.4658,54.522 L 88.0612,55.1646 C 88.1247,55.2281 88.206,55.2995 88.3052,55.3788 C 88.4043,55.4581 88.5253,55.5335 88.6681,55.6049 C 88.8109,55.6763 88.9735,55.7358 89.156,55.7834 C 89.3385,55.831 89.5447,55.8548 89.7748,55.8548 C 90.3619,55.8548 90.8061,55.6922 91.1076,55.3669 C 91.4091,55.0416 91.5598,54.518 91.5598,53.7961 L 91.5598,51.19 C 91.5598,50.9441 91.5677,50.7041 91.5836,50.4701 C 91.5995,50.236 91.6153,50.0793 91.6312,50 L 90.7149,50 L 90.6792,50.6307 L 90.6554,50.6307 C 90.6237,50.5593 90.5761,50.478 90.5126,50.3868 C 90.4491,50.2955 90.3698,50.2122 90.2746,50.1368 C 90.1794,50.0615 90.0644,49.996 89.9295,49.9405 C 89.7946,49.885 89.636,49.8572 89.4535,49.8572 C 89.2393,49.8572 89.039,49.8969 88.8526,49.9762 C 88.6661,50.0555 88.5035,50.1666 88.3647,50.3094 C 88.2258,50.4522 88.1187,50.6208 88.0434,50.8152 C 87.968,51.0095 87.9303,51.2217 87.9303,51.4518 z
M 89.6558,50.6783 C 89.7907,50.6783 89.9097,50.6981 90.0128,50.7378 C 90.1159,50.7775 90.2052,50.8251 90.2806,50.8806 C 90.3559,50.9361 90.4194,50.9976 90.471,51.0651 C 90.5225,51.1325 90.5681,51.19 90.6078,51.2376 L 90.6078,52.499 L 90.2984,52.4871 C 89.8383,52.4712 89.4892,52.3919 89.2512,52.2491 C 89.0132,52.1063 88.8942,51.8762 88.8942,51.5589 C 88.8942,51.2654 88.9616,51.0452 89.0965,50.8985 C 89.2314,50.7517 89.4178,50.6783 89.6558,50.6783 z
M 97.01,50 L 96.1294,50 L 96.1294,50.6426 L 96.1056,50.6426 C 96.0818,50.595 96.0302,50.5256 95.9509,50.4344 C 95.8716,50.3431 95.7704,50.2559 95.6475,50.1726 C 95.5245,50.0893 95.3757,50.0159 95.2012,49.9524 C 95.0267,49.8889 94.8323,49.8572 94.6181,49.8572 C 94.3642,49.8572 94.1362,49.8949 93.9339,49.9702 C 93.7316,50.0456 93.559,50.1666 93.4162,50.3332 C 93.2734,50.4998 93.1643,50.716 93.089,50.9818 C 93.0136,51.2475 92.9759,51.5748 92.9759,51.9635 L 92.9759,55.712 L 93.9398,55.712 L 93.9398,52.0349 C 93.9398,51.5589 94.0172,51.2198 94.1719,51.0174 C 94.3266,50.8152 94.5665,50.714 94.8918,50.714 C 95.1695,50.714 95.4035,50.7834 95.5939,50.9223 C 95.7843,51.0611 95.935,51.1979 96.0461,51.3328 L 96.0461,55.712 L 97.01,55.712 L 97.01,50 z
M 105.0663,55.712 L 103.3289,50 L 102.4721,50 L 101.889,51.9992 C 101.8017,52.2848 101.7284,52.5506 101.6689,52.7965 C 101.6094,53.0424 101.5717,53.2765 101.5558,53.4986 L 101.532,53.4986 C 101.5161,53.2765 101.4725,53.0385 101.4011,52.7846 C 101.3297,52.5307 101.2464,52.265 101.1512,51.9873 L 100.4967,50 L 99.6756,50 L 97.8787,55.712 L 98.914,55.712 L 99.7708,52.4752 C 99.8501,52.1737 99.9196,51.8941 99.9791,51.6363 C 100.0386,51.3784 100.0723,51.1345 100.0802,50.9044 L 100.104,50.9044 C 100.1278,51.1345 100.1774,51.3745 100.2528,51.6244 C 100.3281,51.8743 100.4134,52.146 100.5086,52.4395 L 101.1274,54.3078 L 100.699,55.712 L 101.6986,55.712 L 102.5673,52.5585 C 102.6546,52.2332 102.7339,51.9278 102.8053,51.6422 C 102.8767,51.3566 102.9164,51.1107 102.9243,50.9044 L 102.9481,50.9044 C 102.964,51.1107 103.0036,51.3586 103.0671,51.6482 C 103.1306,51.9377 103.2059,52.2412 103.2932,52.5585 L 104.1381,55.712 L 105.0663,55.712 z
M 109.5407,53.7842 C 109.5407,53.5383 109.5328,53.3261 109.5169,53.1476 C 109.501,52.9691 109.4852,52.8124 109.4693,52.6775 L 106.5538,52.6775 C 106.5855,52.0032 106.7303,51.5073 106.9882,51.19 C 107.246,50.8727 107.6169,50.714 108.1008,50.714 C 108.2674,50.714 108.4181,50.7338 108.553,50.7735 C 108.6879,50.8132 108.8049,50.8608 108.9041,50.9163 C 109.0032,50.9718 109.0865,51.0274 109.154,51.0829 C 109.2214,51.1384 109.271,51.1821 109.3027,51.2138 L 109.6597,50.5355 C 109.62,50.4958 109.5605,50.4383 109.4812,50.363 C 109.4019,50.2876 109.2948,50.2122 109.1599,50.1368 C 109.025,50.0615 108.8584,49.996 108.6601,49.9405 C 108.4618,49.885 108.2277,49.8572 107.958,49.8572 C 107.601,49.8572 107.2777,49.9167 106.9882,50.0357 C 106.6986,50.1547 106.4527,50.3392 106.2504,50.5891 C 106.0481,50.839 105.8914,51.1563 105.7803,51.5411 C 105.6692,51.9258 105.6137,52.3879 105.6137,52.9274 C 105.6137,53.4351 105.6712,53.8735 105.7863,54.2424 C 105.9013,54.6113 106.058,54.9147 106.2563,55.1527 C 106.4546,55.3907 106.6847,55.5672 106.9465,55.6823 C 107.2083,55.7973 107.4899,55.8548 107.7914,55.8548 C 108.3388,55.8548 108.7672,55.6823 109.0766,55.3372 C 109.386,54.9921 109.5407,54.4744 109.5407,53.7842 z
M 107.7319,55.0694 C 107.3908,55.0694 107.1171,54.9266 106.9108,54.641 C 106.7045,54.3554 106.5855,53.9429 106.5538,53.4034 L 108.6363,53.4034 C 108.6442,53.4431 108.6502,53.5006 108.6542,53.576 C 108.6581,53.6513 108.6601,53.7326 108.6601,53.8199 C 108.6601,54.2166 108.5808,54.524 108.4221,54.7422 C 108.2634,54.9603 108.0334,55.0694 107.7319,55.0694 z
M 113.2892,54.5577 C 113.2257,54.6291 113.1107,54.7263 112.9441,54.8493 C 112.7775,54.9722 112.5593,55.0337 112.2896,55.0337 C 112.0357,55.0337 111.8414,54.9742 111.7065,54.8552 C 111.5716,54.7362 111.5042,54.5934 111.5042,54.4268 C 111.5042,54.2126 111.5657,54.0361 111.6887,53.8973 C 111.8116,53.7584 112,53.6097 112.2539,53.451 L 112.6109,53.2368 C 112.9996,53.0067 113.3051,52.7588 113.5272,52.4931 C 113.7493,52.2273 113.8604,51.8842 113.8604,51.4637 C 113.8604,51.0115 113.7037,50.6307 113.3904,50.3213 C 113.077,50.0119 112.6268,49.8572 112.0397,49.8572 C 111.8096,49.8572 111.6073,49.881 111.4328,49.9286 C 111.2583,49.9762 111.1055,50.0317 110.9747,50.0952 C 110.8438,50.1587 110.7347,50.2281 110.6474,50.3034 C 110.5601,50.3788 110.4887,50.4482 110.4332,50.5117 L 110.8973,51.2733 C 110.9449,51.2257 111.0024,51.1702 111.0699,51.1067 C 111.1373,51.0432 111.2186,50.9818 111.3138,50.9223 C 111.409,50.8628 111.5161,50.8132 111.6351,50.7735 C 111.7541,50.7338 111.8929,50.714 112.0516,50.714 C 112.3372,50.714 112.5554,50.7775 112.7061,50.9044 C 112.8568,51.0313 112.9322,51.186 112.9322,51.3685 C 112.9322,51.5034 112.9144,51.6204 112.8787,51.7196 C 112.843,51.8187 112.7894,51.908 112.718,51.9873 C 112.6466,52.0666 112.5593,52.142 112.4562,52.2134 C 112.3531,52.2848 112.2341,52.3641 112.0992,52.4514 L 111.7422,52.6775 C 111.3852,52.9076 111.1055,53.1495 110.9033,53.4034 C 110.701,53.6573 110.5998,53.9825 110.5998,54.3792 C 110.5998,54.5934 110.6415,54.7898 110.7248,54.9683 C 110.8081,55.1467 110.9251,55.3014 111.0758,55.4324 C 111.2265,55.5633 111.4031,55.6664 111.6054,55.7418 C 111.8077,55.8171 112.0238,55.8548 112.2539,55.8548 C 112.476,55.8548 112.6664,55.833 112.8251,55.7894 C 112.9838,55.7457 113.1206,55.6902 113.2357,55.6228 C 113.3507,55.5553 113.4459,55.4879 113.5213,55.4205 C 113.5966,55.353 113.6581,55.2955 113.7057,55.2479 L 113.2892,54.5577 z
M 118.6561,53.7842 C 118.6561,53.5383 118.6482,53.3261 118.6323,53.1476 C 118.6164,52.9691 118.6006,52.8124 118.5847,52.6775 L 115.6692,52.6775 C 115.7009,52.0032 115.8457,51.5073 116.1036,51.19 C 116.3614,50.8727 116.7323,50.714 117.2162,50.714 C 117.3828,50.714 117.5335,50.7338 117.6684,50.7735 C 117.8033,50.8132 117.9203,50.8608 118.0195,50.9163 C 118.1186,50.9718 118.2019,51.0274 118.2694,51.0829 C 118.3368,51.1384 118.3864,51.1821 118.4181,51.2138 L 118.7751,50.5355 C 118.7354,50.4958 118.6759,50.4383 118.5966,50.363 C 118.5173,50.2876 118.4102,50.2122 118.2753,50.1368 C 118.1404,50.0615 117.9738,49.996 117.7755,49.9405 C 117.5772,49.885 117.3431,49.8572 117.0734,49.8572 C 116.7164,49.8572 116.3931,49.9167 116.1036,50.0357 C 115.814,50.1547 115.5681,50.3392 115.3658,50.5891 C 115.1635,50.839 115.0068,51.1563 114.8957,51.5411 C 114.7846,51.9258 114.7291,52.3879 114.7291,52.9274 C 114.7291,53.4351 114.7866,53.8735 114.9017,54.2424 C 115.0167,54.6113 115.1734,54.9147 115.3717,55.1527 C 115.57,55.3907 115.8001,55.5672 116.0619,55.6823 C 116.3237,55.7973 116.6053,55.8548 116.9068,55.8548 C 117.4542,55.8548 117.8826,55.6823 118.192,55.3372 C 118.5014,54.9921 118.6561,54.4744 118.6561,53.7842 z
M 116.8473,55.0694 C 116.5062,55.0694 116.2325,54.9266 116.0262,54.641 C 115.8199,54.3554 115.7009,53.9429 115.6692,53.4034 L 117.7517,53.4034 C 117.7596,53.4431 117.7656,53.5006 117.7696,53.576 C 117.7735,53.6513 117.7755,53.7326 117.7755,53.8199 C 117.7755,54.2166 117.6962,54.524 117.5375,54.7422 C 117.3788,54.9603 117.1488,55.0694 116.8473,55.0694 z
M 123.0591,50 L 123.0591,53.6771 C 123.0591,54.161 122.9778,54.5081 122.8152,54.7184 C 122.6525,54.9286 122.4046,55.0337 122.0714,55.0337 C 121.7858,55.0337 121.5478,54.9623 121.3574,54.8195 C 121.167,54.6767 121.0163,54.5379 120.9052,54.403 L 120.9052,50 L 119.9413,50 L 119.9413,55.712 L 120.8219,55.712 L 120.8219,55.0694 L 120.8457,55.0694 C 120.8695,55.117 120.9211,55.1864 121.0004,55.2777 C 121.0797,55.3689 121.1829,55.4562 121.3098,55.5395 C 121.4367,55.6228 121.5875,55.6961 121.762,55.7596 C 121.9365,55.8231 122.1349,55.8548 122.357,55.8548 C 122.6109,55.8548 122.8409,55.8171 123.0472,55.7418 C 123.2535,55.6664 123.428,55.5454 123.5708,55.3788 C 123.7136,55.2122 123.8247,54.996 123.904,54.7303 C 123.9833,54.4645 124.023,54.1372 124.023,53.7485 L 124.023,50 L 123.0591,50 z
" fill="#000000"/>
  </g>
  <g id="Adler-und-Saeulenelement">
    <path d="M37.173,29.339 C37.2,29.115 37.216,28.884 37.216,28.648 C37.216,28.519 37.217,28.369 37.201,28.199 C39.194,28.171 40.942,26.735 40.942,25.084 C40.942,24.244 40.394,23.61 40.085,23.231 C40.154,23.216 40.224,23.2 40.295,23.183 C40.587,23.437 41.415,24.339 41.415,25.478 C41.415,27.459 39.435,29.298 37.173,29.339 M35.165,22.44 C35.128,22.219 35.044,22.019 34.916,21.847 C34.923,21.645 35.006,21.452 35.331,21.611 C35.155,21.791 35.291,22.11 35.291,22.11 C35.291,22.11 35.651,21.943 35.576,21.705 C36.11,21.833 35.726,22.55 35.165,22.44 M34.702,23.457 C34.631,23.161 34.479,22.857 34.286,22.628 C34.11,22.42 33.819,22.173 33.427,22.173 C33.248,22.173 32.948,22.257 32.757,22.338 C32.686,22.208 32.547,21.895 32.547,21.754 C32.547,21.609 32.792,21.462 33.261,21.462 C34.293,21.462 34.909,21.928 34.909,22.71 C34.909,22.985 34.8,23.235 34.702,23.457 M37.352,36.757 C37.472,36.757 37.53,36.776 37.6,36.802 C37.897,37.61 39.042,39.135 39.09,39.2 L39.1,39.214 L39.117,39.21 C39.398,39.165 40.115,39.057 40.715,39.057 L40.729,39.057 C40.794,39.057 40.868,39.057 40.915,39.103 C40.954,39.142 40.973,39.21 40.973,39.307 C40.973,39.456 40.91,39.711 40.834,39.82 C40.624,39.591 40.283,39.488 39.737,39.488 C39.573,39.488 39.379,39.537 39.274,39.565 L39.231,39.574 L39.182,39.587 L39.497,39.902 C39.983,40.388 40.403,40.807 40.403,41.086 C40.403,41.254 40.239,41.473 40.089,41.57 C40.056,41.059 39.54,40.375 39.037,39.992 L38.994,39.96 L38.986,40.14 C38.979,40.262 38.968,40.445 38.968,40.641 C38.968,41.614 38.869,41.762 38.532,41.762 C38.48,41.762 38.401,41.747 38.352,41.729 C38.542,41.494 38.617,41.184 38.617,40.64 L38.614,40.389 L38.611,40.187 C38.611,39.964 38.634,39.799 38.652,39.666 L38.662,39.591 L38.609,39.584 C38.451,39.562 38.158,39.522 37.934,39.522 C37.453,39.522 37.127,39.566 36.891,39.788 C36.735,39.662 36.575,39.445 36.575,39.308 C36.575,39.105 36.701,39.089 36.867,39.089 C36.951,39.089 37.029,39.101 37.137,39.114 C37.344,39.145 37.655,39.191 38.296,39.191 L38.336,39.191 L38.323,39.152 C38.161,38.687 37.715,38.011 37,37.142 C37.064,36.909 37.127,36.757 37.352,36.757 M31.178,39.152 L31.165,39.191 L31.205,39.191 C31.845,39.191 32.157,39.145 32.364,39.114 C32.472,39.101 32.55,39.089 32.634,39.089 C32.799,39.089 32.926,39.105 32.926,39.308 C32.926,39.445 32.766,39.662 32.611,39.788 C32.374,39.566 32.048,39.522 31.568,39.522 C31.343,39.522 31.049,39.562 30.892,39.584 L30.867,39.587 L30.839,39.591 L30.848,39.666 C30.867,39.799 30.89,39.964 30.89,40.187 L30.887,40.389 L30.884,40.64 C30.884,41.184 30.959,41.494 31.15,41.729 C31.1,41.747 31.021,41.762 30.969,41.762 C30.631,41.762 30.533,41.614 30.533,40.641 C30.533,40.445 30.523,40.262 30.516,40.14 L30.506,39.959 L30.464,39.992 C29.962,40.375 29.444,41.059 29.413,41.57 C29.262,41.473 29.098,41.254 29.098,41.086 C29.098,40.807 29.518,40.388 30.004,39.902 L30.283,39.623 L30.319,39.587 L30.227,39.565 C30.122,39.537 29.928,39.488 29.763,39.488 C29.218,39.488 28.878,39.591 28.667,39.82 C28.591,39.711 28.528,39.456 28.528,39.307 C28.528,39.21 28.547,39.142 28.586,39.103 C28.633,39.057 28.707,39.057 28.772,39.057 L28.786,39.057 C29.386,39.057 30.104,39.165 30.384,39.21 L30.401,39.214 L30.411,39.2 C30.46,39.135 31.604,37.61 31.902,36.802 C31.97,36.776 32.029,36.757 32.149,36.757 C32.374,36.757 32.437,36.909 32.502,37.142 C31.786,38.011 31.34,38.687 31.178,39.152 M28.086,25.478 C28.086,24.339 28.915,23.437 29.207,23.183 C29.277,23.2 29.347,23.216 29.417,23.231 C29.107,23.61 28.559,24.244 28.559,25.084 C28.559,26.752 30.341,28.2 32.359,28.2 C32.346,28.343 32.339,28.493 32.339,28.648 C32.339,28.894 32.353,29.123 32.377,29.339 C30.095,29.325 28.086,27.473 28.086,25.478 M43.392,28.991 C44.416,30.61 45.217,30.583 46.427,30.583 C45.426,29.816 44.764,28.833 44.448,28.331 L42.578,25.339 C42.396,24.415 41.918,23.551 41.202,22.908 C41.443,22.817 41.643,22.721 41.763,22.63 C40.542,22.63 39.332,22.01 38.666,22.01 C38.238,22.01 37.963,22.266 37.963,22.604 C37.99,22.981 38.378,23.364 39.095,23.364 C39.257,23.364 39.465,23.343 39.693,23.305 C40.081,23.846 40.394,24.335 40.394,25.033 C40.394,26.343 38.828,27.364 37.247,27.364 C37.157,27.364 37.072,27.36 36.983,27.354 C36.84,27.029 36.363,26.484 36.363,25.864 C36.363,24.823 37.042,23.973 37.042,22.942 C37.042,22.301 36.73,21.904 36.61,21.739 C36.804,21.559 37.016,21.338 37.066,21.186 C36.953,21.235 36.819,21.241 36.624,21.241 C35.866,21.241 35.248,21.044 34.646,21.044 C34.302,21.044 34.21,21.15 34.21,21.251 C34.21,21.288 34.215,21.326 34.225,21.344 C34.097,21.294 33.977,21.261 33.834,21.235 C33.656,21.201 33.465,21.184 33.261,21.184 C32.529,21.184 32.269,21.491 32.269,21.754 C32.269,21.976 32.444,22.382 32.643,22.692 C32.928,22.548 33.271,22.451 33.427,22.451 C33.816,22.451 34.161,22.821 34.344,23.259 C34.083,23.291 34.033,23.302 33.769,23.302 C33.056,23.302 32.571,23.047 32.471,23.047 C32.462,23.047 32.443,23.052 32.443,23.068 C32.443,23.168 32.645,23.432 33.043,23.577 C33.568,23.769 34.354,23.849 34.485,23.871 C34.485,23.894 34.352,24.142 34.203,24.19 C34.172,24.2 34.147,24.201 34.11,24.193 C33.562,24.085 33.409,24.039 32.714,23.775 C32.693,23.767 32.68,23.78 32.68,23.802 C32.68,24.077 33.392,24.684 34.03,24.917 C33.497,25.597 32.832,26.293 32.518,27.354 C32.429,27.36 32.343,27.364 32.254,27.364 C30.673,27.364 29.107,26.343 29.107,25.033 C29.107,24.335 29.42,23.846 29.808,23.305 C30.036,23.343 30.243,23.364 30.406,23.364 C31.123,23.364 31.511,22.981 31.539,22.604 C31.539,22.266 31.264,22.01 30.835,22.01 C30.169,22.01 28.96,22.63 27.737,22.63 C27.858,22.721 28.058,22.817 28.298,22.908 C27.583,23.551 27.105,24.415 26.923,25.339 L25.053,28.331 C24.738,28.833 24.074,29.816 23.073,30.583 C24.283,30.583 25.085,30.61 26.109,28.991 L27.068,27.457 C27.139,27.656 27.226,27.85 27.329,28.04 L25.422,31.091 C25.105,31.597 24.447,32.571 23.442,33.343 C24.652,33.343 25.454,33.371 26.478,31.753 L28.119,29.125 C28.242,29.256 28.371,29.384 28.507,29.506 L26.191,33.214 C25.873,33.721 25.219,34.693 24.212,35.464 C25.422,35.464 26.224,35.493 27.247,33.874 L29.505,30.259 C29.654,30.353 29.806,30.444 29.964,30.53 L27.207,34.941 C26.889,35.448 26.235,36.417 25.228,37.191 C26.438,37.191 27.24,37.219 28.264,35.601 L31.102,31.058 C31.27,31.122 31.44,31.184 31.613,31.239 L28.406,36.372 C28.093,36.872 27.424,37.859 26.428,38.622 C27.637,38.622 28.44,38.65 29.463,37.032 L32.881,31.562 C32.916,31.568 32.95,31.573 32.984,31.58 C33.077,31.876 33.142,32.152 33.142,32.427 C33.142,34.146 32.014,35.664 30.66,36.836 C30.747,36.874 30.898,36.887 31.037,36.887 C31.317,36.887 31.497,36.872 31.624,36.85 C31.31,37.563 30.636,38.484 30.296,38.96 C29.853,38.88 29.208,38.818 28.786,38.818 C28.344,38.818 28.294,39.076 28.294,39.307 C28.294,39.708 28.482,40.027 28.7,40.205 C28.782,40 28.947,39.726 29.763,39.726 C29.779,39.726 29.807,39.728 29.845,39.731 C29.607,39.996 28.86,40.6 28.86,41.086 C28.86,41.408 29.213,41.891 29.678,41.891 C29.651,41.787 29.654,41.692 29.654,41.62 C29.654,41.226 30.003,40.765 30.298,40.443 C30.289,40.539 30.294,40.529 30.294,40.641 C30.294,41.572 30.378,42 30.969,42 C31.259,42 31.459,41.841 31.528,41.793 C31.144,41.44 31.124,41.162 31.124,40.64 C31.125,40.504 31.126,40.371 31.128,40.188 C31.129,40.068 31.127,39.91 31.108,39.796 C31.319,39.767 31.405,39.767 31.568,39.767 C31.568,39.767 32.407,39.7 32.61,40.137 C32.838,39.928 33.169,39.633 33.169,39.308 C33.169,39.093 33.067,38.85 32.634,38.85 C32.47,38.85 31.955,38.95 31.524,38.95 C31.64,38.693 32.155,37.939 32.602,37.392 C32.67,37.604 32.775,37.833 33.009,38.021 C33.042,37.669 33.248,36.556 33.798,35.905 C33.862,36.345 33.948,36.796 33.948,37.747 C33.948,40.061 33.392,41.77 32.211,42.096 C32.365,42.363 32.69,42.604 33.027,42.604 C33.459,42.604 33.694,42.115 33.934,41.654 C34.059,41.994 34.404,42.828 34.75,42.828 C35.096,42.828 35.442,41.994 35.567,41.654 C35.806,42.115 36.042,42.604 36.474,42.604 C36.811,42.604 37.136,42.363 37.29,42.096 C36.109,41.77 35.552,40.061 35.552,37.747 C35.552,36.796 35.638,36.345 35.702,35.905 C36.253,36.556 36.46,37.669 36.491,38.021 C36.726,37.833 36.832,37.604 36.899,37.392 C37.345,37.939 37.861,38.693 37.977,38.95 C37.546,38.95 37.03,38.85 36.867,38.85 C36.435,38.85 36.333,39.093 36.333,39.308 C36.333,39.633 36.664,39.928 36.892,40.137 C37.093,39.7 37.934,39.767 37.934,39.767 C38.096,39.767 38.182,39.767 38.394,39.796 C38.374,39.91 38.373,40.068 38.374,40.188 C38.376,40.371 38.376,40.504 38.377,40.64 C38.377,41.162 38.357,41.44 37.973,41.793 C38.042,41.841 38.242,42 38.532,42 C39.123,42 39.208,41.572 39.208,40.641 C39.208,40.529 39.211,40.539 39.203,40.443 C39.498,40.765 39.847,41.226 39.847,41.62 C39.847,41.692 39.851,41.787 39.822,41.891 C40.288,41.891 40.642,41.408 40.642,41.086 C40.642,40.6 39.895,39.996 39.655,39.731 C39.694,39.728 39.722,39.726 39.737,39.726 C40.554,39.726 40.719,40 40.801,40.205 C41.019,40.027 41.207,39.708 41.207,39.307 C41.207,39.076 41.157,38.818 40.715,38.818 C40.293,38.818 39.649,38.88 39.205,38.96 C38.864,38.484 38.192,37.563 37.877,36.85 C38.004,36.872 38.185,36.887 38.464,36.887 C38.604,36.887 38.754,36.874 38.841,36.836 C37.487,35.664 36.359,34.146 36.359,32.427 C36.359,32.152 36.424,31.876 36.517,31.58 C36.55,31.573 36.586,31.568 36.62,31.562 L40.038,37.032 C41.061,38.65 41.864,38.622 43.073,38.622 C42.077,37.859 41.408,36.872 41.095,36.372 L37.887,31.239 C38.061,31.184 38.232,31.122 38.4,31.058 L41.237,35.601 C42.261,37.219 43.063,37.191 44.273,37.191 C43.266,36.417 42.612,35.448 42.294,34.941 L39.538,30.53 C39.694,30.444 39.847,30.353 39.995,30.259 L42.254,33.874 C43.278,35.493 44.079,35.464 45.289,35.464 C44.282,34.693 43.629,33.721 43.31,33.214 L40.994,29.506 C41.13,29.384 41.26,29.256 41.381,29.125 L43.024,31.753 C44.047,33.371 44.849,33.343 46.059,33.343 C45.053,32.571 44.397,31.597 44.079,31.091 L42.173,28.04 C42.275,27.85 42.362,27.656 42.434,27.457 z" fill="#000000"/>
    <path d="M56,42 L52.5,42 L52.5,22 L56,22 z" fill="#000000"/>
    <path d="M56,62 L52.5,62 L52.5,42 L56,42 z" fill="#FF0000"/>
    <path d="M56,82 L52.5,82 L52.5,62 L56,62 z" fill="#FFCC00"/>
  </g>
</svg>
